<?xml version="1.0" encoding="UTF-8" standalone="no"?>
<!DOCTYPE svg PUBLIC "-//W3C//DTD SVG 1.1//EN" "http://www.w3.org/Graphics/SVG/1.1/DTD/svg11.dtd">
<svg xmlns="http://www.w3.org/2000/svg" version="1.1" viewBox="0 0 1545 1357">
<g stroke-width="2.00" fill="none" stroke-linecap="butt">
<path stroke="#74b5fc" vector-effect="non-scaling-stroke" d="
  M 779.54 129.23
  Q 779.44 136.67 779.46 144.06
  Q 779.46 146.34 778.72 148.50
  Q 778.62 148.78 778.60 148.48
  Q 778.58 148.15 778.36 148.01
  A 0.70 0.46 -55.9 0 0 777.61 148.32
  C 776.22 150.31 774.05 151.16 772.49 152.55
  Q 770.33 154.48 767.81 156.04
  A 0.35 0.32 -19.4 0 1 767.29 155.81
  L 766.62 148.79
  Q 766.59 148.46 766.52 148.79
  Q 765.99 151.51 765.88 148.95
  Q 765.87 148.75 765.86 148.96
  L 765.54 155.00"
/>
<path stroke="#74b8fc" vector-effect="non-scaling-stroke" d="
  M 516.73 318.46
  L 516.38 354.69
  Q 516.38 355.12 516.38 354.70
  L 516.19 323.81
  Q 516.19 323.36 516.17 323.81
  Q 515.87 330.86 515.99 337.94
  Q 516.00 338.61 515.86 337.96
  L 515.40 335.81
  Q 515.34 335.54 515.31 335.81
  L 514.65 342.54
  Q 514.60 343.11 514.30 342.60
  Q 513.08 340.50 513.09 337.97
  Q 513.10 336.07 511.32 337.59
  C 508.67 339.85 504.06 345.39 503.95 337.18
  Q 503.89 332.86 503.73 328.51
  A 0.40 0.26 88.3 0 0 503.46 328.12
  C 503.20 328.13 503.22 341.46 503.20 342.70
  Q 503.19 343.54 503.03 342.73
  L 502.54 340.25"
/>
<path stroke="#74b8fc" vector-effect="non-scaling-stroke" d="
  M 484.96 368.75
  L 483.36 376.49
  A 0.45 0.40 17.5 0 1 482.76 376.76
  C 480.51 375.90 476.98 379.38 474.05 381.86
  A 0.76 0.01 -1.6 0 1 473.31 381.89
  Q 472.94 381.89 472.34 382.74
  Q 472.02 383.19 472.01 382.62
  L 471.97 376.04
  Q 471.96 375.65 471.89 376.04
  L 471.04 380.75"
/>
<path stroke="#6fa3fb" vector-effect="non-scaling-stroke" d="
  M 776.54 332.75
  L 776.21 323.80
  Q 776.19 323.17 776.11 323.79
  L 775.91 325.43
  Q 775.88 325.73 775.83 325.45
  C 775.26 321.83 774.78 331.07 774.67 331.54
  Q 774.56 332.01 774.27 331.60
  Q 773.30 330.27 771.68 329.58
  A 0.96 0.88 -48.8 0 0 770.79 329.68
  Q 767.50 331.92 763.72 333.05
  A 0.12 0.12 79.1 0 1 763.56 332.94
  Q 763.55 332.84 763.51 332.76
  Q 763.30 332.35 763.29 332.85
  Q 763.19 338.34 762.92 333.26
  Q 762.92 333.10 762.88 333.26
  Q 762.78 333.69 762.47 333.97
  Q 762.05 334.34 761.96 333.73
  L 761.54 330.75"
/>
<path stroke="#6fa3fb" vector-effect="non-scaling-stroke" d="
  M 743.08 427.26
  Q 742.59 399.12 742.69 370.99
  C 742.71 366.81 742.04 361.73 742.14 357.06
  Q 742.15 356.41 742.16 357.06
  Q 742.21 361.19 741.36 365.22
  Q 741.26 365.69 740.95 365.32
  C 738.97 363.00 735.08 365.22 732.93 366.44
  A 0.98 0.97 72.6 0 1 731.49 365.67
  L 731.14 362.30
  Q 731.08 361.70 731.07 362.30
  Q 731.03 364.91 730.65 367.49
  C 730.56 368.03 730.31 367.40 730.31 367.32
  Q 729.91 347.82 729.97 328.31
  Q 729.97 327.56 729.93 328.31
  L 729.62 333.95
  Q 729.62 334.00 729.61 333.94
  L 729.07 320.24"
/>
<path stroke="#70a5fb" vector-effect="non-scaling-stroke" d="
  M 541.50 640.35
  L 543.74 641.27
  A 0.56 0.47 22.0 0 1 544.08 641.91
  Q 543.78 642.72 542.94 642.44
  A 1.91 1.69 -39.0 0 0 542.02 642.40
  L 540.11 642.81
  A 1.39 0.95 3.2 0 0 539.33 643.28
  Q 536.65 647.15 532.89 649.91
  A 1.11 1.07 74.8 0 0 532.46 650.70
  L 532.40 651.64
  A 0.72 0.66 15.7 0 0 532.80 652.28
  Q 533.52 652.64 532.75 652.96"
/>
<path stroke="#73b2fc" vector-effect="non-scaling-stroke" d="
  M 384.71 603.75
  L 384.29 612.95
  Q 384.27 613.47 383.92 613.09
  C 382.77 611.86 383.28 607.82 383.14 606.05
  Q 383.10 605.58 383.05 606.04
  Q 382.70 608.71 381.90 606.20
  A 0.53 0.49 72.6 0 0 381.28 605.84
  C 379.30 606.44 375.95 609.46 374.18 606.94
  A 0.38 0.27 55.8 0 0 373.77 606.79
  L 373.53 606.92
  A 0.39 0.32 -28.5 0 1 373.02 606.82
  Q 372.54 605.75 372.18 606.95
  Q 372.05 607.39 371.99 606.95
  Q 370.56 597.92 370.96 588.75"
/>
<path stroke="#6374fb" vector-effect="non-scaling-stroke" d="
  M 893.97 1042.84
  Q 895.88 1045.14 898.92 1045.64
  Q 899.24 1045.70 898.99 1045.88
  Q 898.17 1046.49 899.53 1046.33
  A 1.54 0.99 0.6 0 1 901.34 1047.52
  Q 898.52 1055.68 889.99 1056.60"
/>
<path stroke="#6680fb" vector-effect="non-scaling-stroke" d="
  M 363.50 1198.96
  Q 362.94 1199.69 362.32 1199.79
  A 1.06 0.60 56.2 0 1 361.52 1199.39
  Q 360.75 1198.51 359.52 1198.30
  A 1.23 1.23 32.1 0 0 358.59 1198.51
  L 352.95 1202.60
  A 0.44 0.43 -33.4 0 1 352.31 1202.48
  C 352.25 1202.36 350.80 1199.28 350.38 1199.42
  A 0.47 0.39 -19.2 0 1 349.81 1199.21
  Q 349.17 1197.43 348.71 1199.75"
/>
<path stroke="#616cfb" vector-effect="non-scaling-stroke" d="
  M 633.25 1240.21
  L 675.19 1239.96
  Q 675.57 1239.96 675.18 1239.94
  Q 666.51 1239.65 657.81 1239.68
  Q 657.30 1239.68 657.81 1239.66
  Q 663.37 1239.40 668.94 1239.47
  Q 669.80 1239.48 668.95 1239.39
  L 661.07 1238.62
  Q 660.89 1238.60 661.06 1238.60
  Q 665.35 1238.57 662.33 1238.04
  A 0.63 0.50 8.3 0 1 661.80 1237.47
  L 662.02 1235.52
  Q 662.10 1234.77 665.28 1231.82
  Q 666.79 1230.42 665.46 1229.23
  A 1.67 1.18 -14.5 0 0 664.56 1228.89
  Q 661.40 1228.63 663.24 1228.08
  Q 663.67 1227.95 663.23 1227.82
  Q 661.80 1227.39 662.72 1226.97
  Q 663.09 1226.80 662.69 1226.79
  Q 653.47 1226.71 644.25 1226.43
  Q 643.42 1226.40 644.50 1226.04"
/>
<path stroke="#616cfb" vector-effect="non-scaling-stroke" d="
  M 730.00 1209.96
  L 727.88 1207.47
  A 0.50 0.42 49.9 0 1 727.88 1206.82
  Q 732.58 1202.79 736.58 1198.03
  A 1.74 0.66 -9.4 0 1 737.39 1197.56
  L 739.75 1196.75
  Q 740.43 1196.52 739.69 1196.53
  C 738.27 1196.54 728.62 1196.68 728.50 1195.60"
/>
</g>
<path fill="#73b3fc" d="
  M 778.72 46.48
  C 767.16 46.01 768.40 32.08 777.25 32.37
  Q 838.68 34.36 898.69 47.47
  C 910.59 50.07 907.09 63.80 896.91 61.66
  Q 835.83 48.82 778.72 46.48
  Z"
/>
<path fill="#76c0fc" d="
  M 779.54 129.23
  Q 779.44 136.67 779.46 144.06
  Q 779.46 146.34 778.72 148.50
  Q 778.62 148.78 778.60 148.48
  Q 778.58 148.15 778.36 148.01
  A 0.70 0.46 -55.9 0 0 777.61 148.32
  C 776.22 150.31 774.05 151.16 772.49 152.55
  Q 770.33 154.48 767.81 156.04
  A 0.35 0.32 -19.4 0 1 767.29 155.81
  L 766.62 148.79
  Q 766.59 148.46 766.52 148.79
  Q 765.99 151.51 765.88 148.95
  Q 765.87 148.75 765.86 148.96
  L 765.54 155.00
  C 765.48 145.68 766.47 134.82 764.82 125.71
  A 0.58 0.57 -6.3 0 0 764.23 125.24
  C 718.62 126.99 693.32 94.98 696.54 51.46
  A 0.57 0.56 -82.0 0 0 696.09 50.86
  Q 685.15 48.53 679.19 48.52
  Q 622.09 48.48 565.00 48.65
  Q 552.91 48.69 541.48 51.61
  A 0.67 0.67 81.7 0 0 540.97 52.30
  C 542.91 85.56 530.18 113.78 495.72 122.74
  Q 489.36 124.40 480.41 125.46
  A 0.57 0.57 86.6 0 0 479.91 126.03
  Q 480.76 175.63 482.11 225.24
  Q 482.19 228.26 483.28 231.07
  Q 500.14 274.68 516.73 318.46
  L 516.38 354.69
  Q 516.38 355.12 516.38 354.70
  L 516.19 323.81
  Q 516.19 323.36 516.17 323.81
  Q 515.87 330.86 515.99 337.94
  Q 516.00 338.61 515.86 337.96
  L 515.40 335.81
  Q 515.34 335.54 515.31 335.81
  L 514.65 342.54
  Q 514.60 343.11 514.30 342.60
  Q 513.08 340.50 513.09 337.97
  Q 513.10 336.07 511.32 337.59
  C 508.67 339.85 504.06 345.39 503.95 337.18
  Q 503.89 332.86 503.73 328.51
  A 0.40 0.26 88.3 0 0 503.46 328.12
  C 503.20 328.13 503.22 341.46 503.20 342.70
  Q 503.19 343.54 503.03 342.73
  L 502.54 340.25
  C 502.48 334.17 503.67 324.01 501.54 318.50
  Q 492.21 294.31 483.25 270.67
  Q 482.56 268.86 482.61 270.80
  L 484.96 368.75
  L 483.36 376.49
  A 0.45 0.40 17.5 0 1 482.76 376.76
  C 480.51 375.90 476.98 379.38 474.05 381.86
  A 0.76 0.01 -1.6 0 1 473.31 381.89
  Q 472.94 381.89 472.34 382.74
  Q 472.02 383.19 472.01 382.62
  L 471.97 376.04
  Q 471.96 375.65 471.89 376.04
  L 471.04 380.75
  L 467.83 249.36
  A 0.49 0.48 -14.1 0 0 467.12 248.94
  Q 457.49 253.89 450.13 261.38
  Q 447.33 264.23 446.19 264.85
  C 439.18 268.68 432.59 259.72 437.58 253.83
  Q 448.92 240.44 467.02 233.43
  A 0.72 0.69 78.5 0 0 467.46 232.74
  C 467.24 228.90 467.79 224.81 467.71 221.42
  Q 466.68 178.96 465.72 136.50
  C 465.03 106.33 473.30 80.90 495.97 60.56
  Q 525.08 34.43 566.01 34.36
  Q 617.37 34.26 668.75 34.23
  Q 681.69 34.22 688.70 35.13
  C 737.43 41.41 775.70 79.58 779.54 129.23
  Z
  M 761.43 110.37
  C 753.39 85.94 735.02 65.69 711.21 55.72
  A 0.36 0.36 12.8 0 0 710.71 56.03
  C 708.69 88.28 727.94 111.38 761.09 110.86
  A 0.37 0.37 80.1 0 0 761.43 110.37
  Z
  M 525.39 74.68
  C 526.18 70.96 527.63 62.95 526.79 57.55
  A 0.39 0.39 -17.0 0 0 526.24 57.26
  C 504.51 67.57 488.05 86.19 482.23 109.87
  A 0.66 0.66 -86.3 0 0 482.95 110.69
  C 504.64 108.07 520.70 96.59 525.39 74.68
  Z"
/>
<path fill="#70a6fb" d="
  M 972.47 83.32
  C 961.03 79.18 966.95 66.04 976.63 69.51
  Q 1012.07 82.21 1045.90 98.72
  C 1056.61 103.94 1049.67 116.34 1041.22 112.32
  Q 1004.61 94.93 972.47 83.32
  Z"
/>
<path fill="#7ad2fc" d="
  M 311.89 141.63
  Q 312.24 141.06 312.78 140.67
  Q 343.88 118.00 378.24 99.45
  Q 381.11 97.90 383.06 97.88
  C 388.17 97.84 391.72 103.73 389.42 108.08
  Q 388.34 110.11 385.12 111.88
  Q 354.05 128.95 321.59 151.86
  C 314.96 156.53 307.23 148.93 311.89 141.63
  Z"
/>
<path fill="#71aafb" d="
  M 779.54 129.23
  Q 779.86 137.96 779.60 155.83
  Q 778.99 197.31 778.22 239.02
  A 0.77 0.74 13.2 0 0 778.67 239.72
  C 785.22 242.68 812.94 257.38 809.60 266.36
  C 807.37 272.33 801.66 272.94 797.24 268.88
  Q 788.67 261.01 778.38 255.63
  A 0.34 0.34 -75.7 0 0 777.88 255.93
  L 776.54 332.75
  L 776.21 323.80
  Q 776.19 323.17 776.11 323.79
  L 775.91 325.43
  Q 775.88 325.73 775.83 325.45
  C 775.26 321.83 774.78 331.07 774.67 331.54
  Q 774.56 332.01 774.27 331.60
  Q 773.30 330.27 771.68 329.58
  A 0.96 0.88 -48.8 0 0 770.79 329.68
  Q 767.50 331.92 763.72 333.05
  A 0.12 0.12 79.1 0 1 763.56 332.94
  Q 763.55 332.84 763.51 332.76
  Q 763.30 332.35 763.29 332.85
  Q 763.19 338.34 762.92 333.26
  Q 762.92 333.10 762.88 333.26
  Q 762.78 333.69 762.47 333.97
  Q 762.05 334.34 761.96 333.73
  L 761.54 330.75
  L 763.10 270.86
  Q 763.15 269.04 762.50 270.74
  Q 753.44 294.46 744.26 318.14
  Q 743.25 320.75 743.26 323.56
  Q 743.37 375.40 743.08 427.26
  Q 742.59 399.12 742.69 370.99
  C 742.71 366.81 742.04 361.73 742.14 357.06
  Q 742.15 356.41 742.16 357.06
  Q 742.21 361.19 741.36 365.22
  Q 741.26 365.69 740.95 365.32
  C 738.97 363.00 735.08 365.22 732.93 366.44
  A 0.98 0.97 72.6 0 1 731.49 365.67
  L 731.14 362.30
  Q 731.08 361.70 731.07 362.30
  Q 731.03 364.91 730.65 367.49
  C 730.56 368.03 730.31 367.40 730.31 367.32
  Q 729.91 347.82 729.97 328.31
  Q 729.97 327.56 729.93 328.31
  L 729.62 333.95
  Q 729.62 334.00 729.61 333.94
  L 729.07 320.24
  C 728.99 319.38 728.88 318.45 729.21 317.61
  Q 745.92 273.96 762.77 230.34
  C 764.74 225.25 764.34 220.50 764.40 215.18
  Q 764.71 185.09 765.54 155.00
  L 765.86 148.96
  Q 765.87 148.75 765.88 148.95
  Q 765.99 151.51 766.52 148.79
  Q 766.59 148.46 766.62 148.79
  L 767.29 155.81
  A 0.35 0.32 -19.4 0 0 767.81 156.04
  Q 770.33 154.48 772.49 152.55
  C 774.05 151.16 776.22 150.31 777.61 148.32
  A 0.70 0.46 -55.9 0 1 778.36 148.01
  Q 778.58 148.15 778.60 148.48
  Q 778.62 148.78 778.72 148.50
  Q 779.46 146.34 779.46 144.06
  Q 779.44 136.67 779.54 129.23
  Z"
/>
<path fill="#6c97fb" d="
  M 1105.03 147.30
  C 1102.47 142.84 1106.47 136.35 1111.77 136.91
  Q 1113.86 137.13 1117.37 139.44
  Q 1148.40 159.81 1176.90 183.60
  C 1185.72 190.96 1176.00 201.33 1168.56 195.20
  Q 1139.40 171.18 1109.96 151.68
  Q 1106.05 149.09 1105.03 147.30
  Z"
/>
<path fill="#74b6fc" d="
  M 537.67 299.12
  C 523.79 294.84 520.94 285.03 516.94 272.74
  Q 506.38 240.33 495.99 207.86
  C 493.71 200.74 492.36 196.95 499.82 193.48
  C 510.06 188.72 516.97 184.95 523.48 183.93
  Q 621.62 168.52 721.19 183.85
  C 729.57 185.14 736.95 189.49 744.52 192.90
  C 750.15 195.44 752.97 197.85 750.75 204.25
  Q 738.25 240.29 725.70 276.31
  C 721.67 287.87 717.66 295.47 706.31 298.92
  Q 701.92 300.25 691.06 300.25
  Q 620.07 300.26 549.08 300.24
  Q 541.30 300.23 537.67 299.12
  Z
  M 536.13 281.76
  C 539.69 285.30 542.39 285.98 547.71 285.99
  Q 620.71 286.02 693.72 285.99
  C 702.31 285.99 707.61 284.79 710.50 276.51
  Q 722.96 240.74 735.36 205.00
  A 0.58 0.57 23.0 0 0 735.07 204.30
  Q 723.63 198.67 720.76 198.22
  Q 624.38 182.88 528.02 197.73
  C 521.52 198.73 516.16 201.59 510.43 204.51
  A 0.60 0.58 -22.5 0 0 510.13 205.21
  L 533.51 277.48
  Q 534.30 279.93 536.13 281.76
  Z"
/>
<path fill="#7ad2fc" d="
  M 238.77 202.52
  Q 250.28 191.17 252.72 189.46
  C 260.88 183.73 268.82 193.89 262.02 200.23
  Q 234.34 226.04 210.17 255.17
  C 206.03 260.14 198.25 258.26 197.51 251.69
  C 197.11 248.09 199.36 246.02 201.57 243.33
  Q 219.09 221.93 238.77 202.52
  Z"
/>
<path fill="#6889fb" d="
  M 1220.75 339.45
  A 7.30 7.30 0.0 0 1 1213.45 346.75
  L 1183.55 346.75
  A 7.30 7.30 0.0 0 1 1176.25 339.45
  L 1176.25 272.55
  A 7.30 7.30 0.0 0 1 1183.55 265.25
  L 1213.45 265.25
  A 7.30 7.30 0.0 0 1 1220.75 272.55
  L 1220.75 339.45
  Z
  M 1206.50 279.76
  A 0.27 0.27 0.0 0 0 1206.23 279.49
  L 1190.77 279.49
  A 0.27 0.27 0.0 0 0 1190.50 279.76
  L 1190.50 332.28
  A 0.27 0.27 0.0 0 0 1190.77 332.55
  L 1206.23 332.55
  A 0.27 0.27 0.0 0 0 1206.50 332.28
  L 1206.50 279.76
  Z"
/>
<path fill="#76c0fc" d="
  M 448.03 495.35
  C 361.93 495.68 285.97 451.18 257.68 367.55
  Q 243.53 325.72 244.41 283.68
  C 244.57 275.71 255.42 273.84 258.03 281.19
  Q 258.52 282.58 258.55 285.85
  C 258.94 325.43 267.65 365.70 288.95 399.53
  C 323.55 454.48 383.40 481.13 447.40 481.12
  Q 451.28 481.12 452.99 481.93
  C 457.47 484.05 457.96 491.13 454.12 493.90
  Q 452.12 495.33 448.03 495.35
  Z"
/>
<path fill="#76c0fc" d="
  M 448.80 437.25
  C 360.99 434.43 304.32 371.16 300.88 285.16
  C 300.44 274.21 314.21 273.17 315.02 284.74
  C 319.61 350.69 351.73 402.40 419.30 418.80
  Q 430.97 421.63 450.75 423.28
  C 458.73 423.94 459.20 437.59 448.80 437.25
  Z"
/>
<path fill="#76c0fc" d="
  M 446.73 381.59
  C 395.04 374.29 364.25 336.92 359.46 285.91
  C 358.35 274.06 372.54 273.90 373.52 282.99
  C 378.46 328.87 401.33 359.60 448.69 367.53
  Q 452.59 368.18 454.06 369.22
  C 457.97 371.98 457.37 379.05 453.17 381.10
  Q 450.94 382.18 446.73 381.59
  Z"
/>
<rect fill="#6d9bfb" x="919.05" y="294.53" width="14.18" height="29.44" rx="6.74"/>
<rect fill="#6478fb" x="1465.33" y="294.55" width="14.16" height="29.42" rx="6.74"/>
<path fill="#7ad2fc" d="
  M 138.83 387.49
  C 135.68 397.31 122.58 392.87 125.23 383.72
  Q 135.07 349.76 153.43 314.68
  C 155.16 311.37 156.64 308.03 160.78 307.87
  C 167.09 307.64 170.31 313.32 167.35 318.82
  C 155.37 341.03 146.54 363.52 138.83 387.49
  Z"
/>
<path fill="#72affb" d="
  M 516.73 318.46
  L 516.68 449.32
  Q 516.68 450.31 516.20 451.18
  Q 502.82 475.67 489.44 500.16
  Q 488.43 501.99 488.47 504.10
  Q 489.12 541.92 490.24 579.70
  C 491.17 610.99 510.30 634.95 541.50 640.35
  L 543.74 641.27
  A 0.56 0.47 22.0 0 1 544.08 641.91
  Q 543.78 642.72 542.94 642.44
  A 1.91 1.69 -39.0 0 0 542.02 642.40
  L 540.11 642.81
  A 1.39 0.95 3.2 0 0 539.33 643.28
  Q 536.65 647.15 532.89 649.91
  A 1.11 1.07 74.8 0 0 532.46 650.70
  L 532.40 651.64
  A 0.72 0.66 15.7 0 0 532.80 652.28
  Q 533.52 652.64 532.75 652.96
  C 504.10 646.75 483.06 622.99 477.42 594.89
  Q 476.06 588.10 475.76 575.00
  Q 473.59 477.87 471.04 380.75
  L 471.89 376.04
  Q 471.96 375.65 471.97 376.04
  L 472.01 382.62
  Q 472.02 383.19 472.34 382.74
  Q 472.94 381.89 473.31 381.89
  A 0.76 0.01 -1.6 0 0 474.05 381.86
  C 476.98 379.38 480.51 375.90 482.76 376.76
  A 0.45 0.40 17.5 0 0 483.36 376.49
  L 484.96 368.75
  L 487.68 472.77
  Q 487.69 473.27 487.94 472.84
  Q 494.94 460.55 501.52 448.14
  Q 502.52 446.26 502.52 444.14
  Q 502.46 392.18 502.54 340.25
  L 503.03 342.73
  Q 503.19 343.54 503.20 342.70
  C 503.22 341.46 503.20 328.13 503.46 328.12
  A 0.40 0.26 88.3 0 1 503.73 328.51
  Q 503.89 332.86 503.95 337.18
  C 504.06 345.39 508.67 339.85 511.32 337.59
  Q 513.10 336.07 513.09 337.97
  Q 513.08 340.50 514.30 342.60
  Q 514.60 343.11 514.65 342.54
  L 515.31 335.81
  Q 515.34 335.54 515.40 335.81
  L 515.86 337.96
  Q 516.00 338.61 515.99 337.94
  Q 515.87 330.86 516.17 323.81
  Q 516.19 323.36 516.19 323.81
  L 516.38 354.70
  Q 516.38 355.12 516.38 354.69
  L 516.73 318.46
  Z"
/>
<path fill="#6d9bfb" d="
  M 743.08 427.26
  C 743.22 432.36 742.09 444.19 744.28 448.31
  Q 750.83 460.66 757.80 472.77
  Q 758.05 473.20 758.07 472.70
  L 761.54 330.75
  L 761.96 333.73
  Q 762.05 334.34 762.47 333.97
  Q 762.78 333.69 762.88 333.26
  Q 762.92 333.10 762.92 333.26
  Q 763.19 338.34 763.29 332.85
  Q 763.30 332.35 763.51 332.76
  Q 763.55 332.84 763.56 332.94
  A 0.12 0.12 79.1 0 0 763.72 333.05
  Q 767.50 331.92 770.79 329.68
  A 0.96 0.88 -48.8 0 1 771.68 329.58
  Q 773.30 330.27 774.27 331.60
  Q 774.56 332.01 774.67 331.54
  C 774.78 331.07 775.26 321.83 775.83 325.45
  Q 775.88 325.73 775.91 325.43
  L 776.11 323.79
  Q 776.19 323.17 776.21 323.80
  L 776.54 332.75
  Q 774.68 452.34 772.58 571.93
  Q 772.34 585.62 771.32 591.87
  C 765.57 627.23 736.30 654.61 699.50 654.66
  Q 622.66 654.77 545.81 654.73
  Q 540.85 654.72 532.75 652.96
  Q 533.52 652.64 532.80 652.28
  A 0.72 0.66 15.7 0 1 532.40 651.64
  L 532.46 650.70
  A 1.11 1.07 74.8 0 1 532.89 649.91
  Q 536.65 647.15 539.33 643.28
  A 1.39 0.95 3.2 0 1 540.11 642.81
  L 542.02 642.40
  A 1.91 1.69 -39.0 0 1 542.94 642.44
  Q 543.78 642.72 544.08 641.91
  A 0.56 0.47 22.0 0 0 543.74 641.27
  L 541.50 640.35
  Q 616.84 640.61 692.19 640.49
  Q 705.98 640.47 712.10 639.12
  C 734.10 634.25 751.10 615.82 756.35 594.29
  Q 757.94 587.77 758.22 575.05
  Q 758.97 541.19 759.27 507.31
  Q 759.29 505.23 758.27 503.41
  Q 743.48 477.10 729.53 451.08
  Q 729.01 450.11 729.01 449.02
  L 729.07 320.24
  L 729.61 333.94
  Q 729.62 334.00 729.62 333.95
  L 729.93 328.31
  Q 729.97 327.56 729.97 328.31
  Q 729.91 347.82 730.31 367.32
  C 730.31 367.40 730.56 368.03 730.65 367.49
  Q 731.03 364.91 731.07 362.30
  Q 731.08 361.70 731.14 362.30
  L 731.49 365.67
  A 0.98 0.97 72.6 0 0 732.93 366.44
  C 735.08 365.22 738.97 363.00 740.95 365.32
  Q 741.26 365.69 741.36 365.22
  Q 742.21 361.19 742.16 357.06
  Q 742.15 356.41 742.14 357.06
  C 742.04 361.73 742.71 366.81 742.69 370.99
  Q 742.59 399.12 743.08 427.26
  Z"
/>
<rect fill="#6c97fb" x="919.04" y="365.32" width="14.20" height="69.62" rx="6.94"/>
<rect fill="#626ffb" x="1465.30" y="365.33" width="14.20" height="69.62" rx="6.94"/>
<path fill="#6782fb" d="
  M 984.44 455.56
  C 978.02 449.80 983.00 445.21 988.21 441.44
  C 1112.79 351.19 1283.12 350.75 1408.28 439.94
  Q 1411.87 442.50 1412.94 444.36
  C 1417.10 451.61 1408.19 457.48 1401.52 452.68
  C 1279.94 365.16 1114.33 366.02 993.77 455.10
  C 990.89 457.22 987.08 457.94 984.44 455.56
  Z"
/>
<path fill="#6478fb" d="
  M 1320.69 624.07
  C 1282.48 624.37 1259.78 599.79 1262.12 562.17
  A 1.09 1.08 7.6 0 0 1261.25 561.04
  C 1255.97 560.01 1251.27 559.51 1245.55 559.50
  Q 1194.68 559.48 1143.81 559.52
  Q 1139.92 559.52 1130.06 561.69
  A 0.60 0.60 -7.9 0 0 1129.59 562.31
  C 1131.69 597.63 1112.55 620.64 1077.28 623.93
  A 0.57 0.55 -2.4 0 0 1076.77 624.47
  C 1076.74 628.23 1077.42 634.04 1075.73 637.01
  C 1073.57 640.80 1067.35 641.26 1064.49 637.97
  Q 1062.96 636.21 1062.71 632.63
  C 1059.56 587.21 1092.44 552.24 1136.05 546.16
  C 1148.01 544.49 1163.63 545.26 1177.14 545.24
  A 0.61 0.61 90.0 0 0 1177.75 544.63
  Q 1177.74 498.12 1177.76 452.21
  C 1177.77 448.00 1179.72 444.54 1184.14 444.31
  C 1191.77 443.92 1199.18 444.36 1206.87 443.92
  C 1213.78 443.53 1219.25 444.66 1219.25 452.67
  Q 1219.24 498.69 1219.27 544.71
  A 0.50 0.49 90.0 0 0 1219.76 545.21
  C 1233.33 545.23 1248.72 544.46 1260.87 546.46
  C 1302.96 553.40 1334.80 588.13 1336.04 631.34
  Q 1336.15 635.01 1335.03 636.95
  C 1332.63 641.11 1325.88 641.23 1323.23 637.37
  C 1321.16 634.36 1321.75 628.45 1321.25 624.56
  A 0.56 0.55 86.0 0 0 1320.69 624.07
  Z
  M 1205.01 458.52
  A 0.26 0.26 0.0 0 0 1204.75 458.26
  L 1192.25 458.26
  A 0.26 0.26 0.0 0 0 1191.99 458.52
  L 1191.99 544.98
  A 0.26 0.26 0.0 0 0 1192.25 545.24
  L 1204.75 545.24
  A 0.26 0.26 0.0 0 0 1205.01 544.98
  L 1205.01 458.52
  Z
  M 1276.03 566.07
  C 1276.01 592.26 1290.58 609.08 1317.27 609.66
  A 0.51 0.50 -10.4 0 0 1317.75 608.97
  Q 1305.89 578.83 1276.42 565.81
  A 0.28 0.28 -78.4 0 0 1276.03 566.07
  Z
  M 1114.85 567.40
  C 1097.81 575.42 1084.13 590.38 1079.13 608.70
  A 0.34 0.34 5.2 0 0 1079.49 609.13
  C 1102.33 606.92 1116.10 590.44 1115.32 567.70
  A 0.34 0.33 76.7 0 0 1114.85 567.40
  Z"
/>
<path fill="#6b93fb" d="
  M 886.81 474.31
  C 886.82 479.31 887.89 493.61 885.26 497.42
  C 882.60 501.27 875.75 500.98 873.51 496.96
  Q 872.49 495.11 872.49 490.88
  Q 872.50 479.57 872.50 468.27
  C 872.51 463.46 874.35 459.51 879.50 459.51
  Q 891.75 459.49 904.00 459.50
  Q 908.24 459.51 910.17 460.51
  C 917.46 464.31 913.53 473.80 905.42 473.75
  Q 896.36 473.70 887.32 473.81
  A 0.51 0.50 -0.0 0 0 886.81 474.31
  Z"
/>
<path fill="#698dfb" d="
  M 947.10 472.91
  C 942.48 470.02 941.97 463.30 946.86 460.55
  Q 948.72 459.50 952.84 459.50
  Q 963.97 459.48 975.12 459.53
  C 981.80 459.56 984.76 461.41 984.76 468.22
  Q 984.75 479.60 984.74 490.97
  C 984.74 495.50 983.96 498.74 979.52 499.93
  C 974.38 501.31 970.46 497.49 970.48 492.26
  Q 970.52 480.09 970.40 474.35
  A 0.52 0.50 89.4 0 0 969.90 473.84
  L 950.13 473.77
  Q 948.45 473.76 947.10 472.91
  Z"
/>
<path fill="#626dfb" d="
  M 1426.35 497.06
  C 1422.93 502.99 1413.38 500.20 1413.32 492.75
  Q 1413.22 481.13 1413.27 469.50
  C 1413.30 462.59 1415.27 459.52 1422.29 459.50
  Q 1433.77 459.48 1445.25 459.52
  Q 1449.57 459.54 1451.45 460.56
  C 1455.89 462.98 1455.69 470.78 1451.12 472.92
  C 1446.67 475.01 1433.55 473.74 1428.11 473.85
  A 0.52 0.51 -0.0 0 0 1427.60 474.35
  C 1427.48 479.69 1428.77 492.87 1426.35 497.06
  Z"
/>
<path fill="#6067fa" d="
  M 1487.49 472.54
  C 1482.90 469.08 1483.21 462.19 1488.82 460.09
  Q 1490.39 459.51 1494.27 459.50
  Q 1505.45 459.48 1516.65 459.52
  C 1522.28 459.54 1525.51 461.36 1525.51 467.23
  Q 1525.50 479.28 1525.49 491.33
  Q 1525.49 495.45 1524.36 497.30
  C 1521.90 501.37 1514.81 501.00 1512.50 496.89
  C 1510.28 492.93 1511.51 479.42 1511.40 474.35
  A 0.52 0.52 -3.5 0 0 1510.89 473.84
  L 1491.18 473.76
  Q 1489.09 473.75 1487.49 472.54
  Z"
/>
<path fill="#6fa3fb" d="
  M 530.02 546.49
  C 517.80 546.49 508.16 539.28 507.26 526.50
  Q 506.99 522.73 508.59 519.88
  Q 516.65 505.50 524.77 491.15
  C 531.57 479.15 537.89 471.65 550.73 468.34
  Q 555.89 467.00 569.38 467.00
  Q 624.75 466.99 680.11 467.02
  C 693.51 467.03 703.03 468.79 712.12 477.66
  Q 716.14 481.57 722.14 492.20
  Q 729.64 505.49 737.00 518.86
  C 742.75 529.30 735.23 541.78 725.00 545.30
  Q 721.51 546.50 712.86 546.50
  Q 621.44 546.51 530.02 546.49
  Z
  M 529.76 532.23
  C 592.51 532.29 655.24 532.65 718.00 532.21
  Q 723.21 532.18 724.68 526.96
  A 1.28 1.17 40.8 0 0 724.57 526.05
  Q 716.08 510.50 707.31 495.09
  C 701.27 484.47 694.49 481.28 682.02 481.27
  Q 624.79 481.23 567.58 481.25
  C 554.54 481.26 546.03 482.54 539.70 493.70
  Q 536.73 498.94 521.68 526.03
  A 1.26 1.12 -41.6 0 0 521.57 526.95
  C 522.85 530.95 525.48 532.22 529.76 532.23
  Z"
/>
<rect fill="#698dfb" x="919.02" y="476.26" width="14.24" height="69.46" rx="6.95"/>
<rect fill="#6067fa" x="-7.12" y="-34.73" transform="translate(1472.40,510.99) rotate(0.1)" width="14.24" height="69.46" rx="6.95"/>
<path fill="#75bdfc" d="
  M 384.71 603.75
  L 384.29 612.95
  Q 384.27 613.47 383.92 613.09
  C 382.77 611.86 383.28 607.82 383.14 606.05
  Q 383.10 605.58 383.05 606.04
  Q 382.70 608.71 381.90 606.20
  A 0.53 0.49 72.6 0 0 381.28 605.84
  C 379.30 606.44 375.95 609.46 374.18 606.94
  A 0.38 0.27 55.8 0 0 373.77 606.79
  L 373.53 606.92
  A 0.39 0.32 -28.5 0 1 373.02 606.82
  Q 372.54 605.75 372.18 606.95
  Q 372.05 607.39 371.99 606.95
  Q 370.56 597.92 370.96 588.75
  Q 371.26 579.54 370.26 570.27
  A 0.56 0.55 85.5 0 0 369.69 569.78
  C 338.48 570.72 311.06 554.93 303.75 523.50
  Q 300.93 511.40 301.85 495.96
  A 0.59 0.58 8.2 0 0 301.39 495.36
  Q 292.02 493.25 287.00 493.25
  Q 227.58 493.24 168.16 493.26
  C 160.62 493.27 154.04 494.37 146.99 495.98
  A 0.95 0.95 81.3 0 0 146.25 496.99
  C 149.45 536.97 127.35 567.25 86.31 569.60
  A 1.23 1.22 88.1 0 0 85.15 570.85
  Q 86.16 619.38 87.26 668.00
  Q 87.33 670.93 88.38 673.67
  Q 104.73 716.13 121.02 758.62
  Q 122.03 761.24 122.02 764.06
  Q 122.00 777.37 121.98 790.67
  C 121.96 802.30 107.88 801.51 107.82 791.50
  Q 107.74 779.15 107.76 766.80
  Q 107.77 763.99 106.76 761.38
  Q 97.46 737.22 88.32 713.17
  Q 87.96 712.22 87.99 713.24
  Q 88.91 751.72 89.89 790.18
  Q 89.97 793.56 89.28 795.08
  C 87.07 799.95 80.17 800.48 77.16 796.42
  Q 75.73 794.49 75.62 790.24
  Q 74.39 742.00 73.23 693.87
  A 0.52 0.52 76.1 0 0 72.48 693.41
  Q 62.75 698.36 55.21 706.08
  Q 51.96 709.40 50.07 709.95
  C 43.07 711.98 38.46 703.43 43.12 698.09
  Q 54.70 684.82 72.26 677.93
  A 0.75 0.73 -10.2 0 0 72.74 677.26
  Q 72.98 666.58 72.91 663.57
  C 72.24 635.60 71.95 607.59 71.03 579.63
  Q 69.40 530.41 106.01 500.97
  C 124.17 486.38 147.23 478.77 170.50 478.76
  Q 225.13 478.74 279.75 478.77
  C 338.02 478.81 385.10 523.37 385.26 582.00
  Q 385.29 592.88 384.71 603.75
  Z
  M 331.94 544.06
  Q 347.18 555.83 365.81 555.38
  A 0.90 0.90 -10.9 0 0 366.63 554.17
  Q 352.31 516.00 316.58 500.19
  A 0.35 0.34 14.1 0 0 316.09 500.48
  C 315.03 516.23 319.36 534.35 331.94 544.06
  Z
  M 131.62 501.72
  C 109.80 512.05 93.05 531.05 87.45 554.82
  A 0.32 0.32 -85.5 0 0 87.79 555.22
  C 117.54 551.99 133.73 531.52 132.10 502.00
  A 0.34 0.33 -14.2 0 0 131.62 501.72
  Z"
/>
<path fill="#698dfb" d="
  M 887.06 554.94
  C 892.44 554.99 905.75 553.76 910.14 555.86
  C 914.67 558.02 914.97 565.41 910.94 567.95
  Q 908.89 569.23 904.28 569.24
  Q 892.60 569.26 880.91 569.24
  C 875.86 569.23 872.51 567.13 872.50 561.89
  Q 872.49 549.44 872.50 536.98
  Q 872.51 533.52 873.61 531.78
  C 876.08 527.89 882.52 527.65 885.17 531.29
  C 887.71 534.79 886.52 549.60 886.56 554.44
  A 0.50 0.50 0.0 0 0 887.06 554.94
  Z"
/>
<path fill="#6887fb" d="
  M 970.45 554.44
  Q 970.57 545.22 970.47 536.00
  C 970.36 526.56 984.76 525.21 984.75 537.82
  Q 984.75 549.05 984.75 560.29
  C 984.74 566.70 982.40 569.25 976.14 569.26
  Q 963.87 569.26 951.61 569.23
  C 943.36 569.22 939.95 559.57 947.11 555.95
  C 951.49 553.75 964.58 555.01 969.95 554.94
  A 0.51 0.50 -89.4 0 0 970.45 554.44
  Z"
/>
<path fill="#6067fa" d="
  M 1428.06 554.94
  C 1433.43 554.99 1446.73 553.76 1451.12 555.89
  C 1455.50 558.02 1455.95 565.30 1451.93 567.96
  C 1447.79 570.69 1428.65 569.26 1422.87 569.25
  C 1417.02 569.25 1413.31 567.51 1413.27 561.24
  Q 1413.16 539.79 1413.30 535.57
  C 1413.59 526.44 1427.55 525.76 1427.50 537.14
  Q 1427.46 545.78 1427.56 554.43
  A 0.51 0.50 90.0 0 0 1428.06 554.94
  Z"
/>
<path fill="#5e60fa" d="
  M 1487.29 567.85
  C 1482.85 564.23 1483.47 557.50 1488.97 555.52
  Q 1490.55 554.95 1494.61 554.99
  Q 1502.76 555.08 1510.91 554.90
  A 0.53 0.51 -90.0 0 0 1511.41 554.38
  C 1511.49 549.38 1510.32 535.91 1512.43 532.06
  C 1514.74 527.86 1521.74 527.57 1524.20 531.35
  C 1527.00 535.63 1525.50 555.39 1525.49 561.34
  C 1525.48 566.60 1523.06 569.22 1517.92 569.23
  Q 1504.15 569.28 1491.17 569.24
  Q 1488.98 569.23 1487.29 567.85
  Z"
/>
<path fill="#626dfb" d="
  M 1086.80 689.10
  C 1051.05 654.67 1015.64 621.04 980.03 585.62
  C 972.54 578.16 982.15 567.92 990.97 576.43
  Q 1043.22 626.88 1095.32 677.48
  A 0.75 0.73 53.9 0 0 1096.14 677.62
  Q 1108.07 671.95 1110.75 671.53
  Q 1197.81 657.76 1284.82 671.07
  C 1291.07 672.03 1296.42 674.89 1302.04 677.54
  A 0.72 0.71 35.2 0 0 1302.84 677.41
  Q 1354.46 627.17 1406.09 576.98
  Q 1408.85 574.30 1410.37 573.60
  C 1416.27 570.88 1422.29 577.15 1419.62 583.01
  Q 1418.98 584.41 1416.83 586.51
  Q 1364.75 637.22 1312.62 687.88
  Q 1310.96 689.49 1310.18 691.66
  Q 1299.18 722.17 1288.29 752.71
  C 1284.09 764.46 1276.49 771.19 1263.25 771.21
  Q 1201.28 771.28 1139.31 771.23
  C 1120.78 771.22 1113.46 767.21 1107.67 749.77
  Q 1097.95 720.47 1088.45 691.73
  Q 1087.95 690.21 1086.80 689.10
  Z
  M 1123.23 750.63
  C 1124.71 755.02 1129.03 756.99 1133.42 756.99
  Q 1198.96 757.01 1264.50 757.00
  C 1269.55 756.99 1272.66 753.91 1274.40 749.09
  Q 1284.91 719.84 1295.37 690.43
  A 0.17 0.17 -66.1 0 0 1295.29 690.22
  C 1289.75 687.18 1284.99 685.49 1278.38 684.52
  Q 1196.94 672.66 1115.50 685.24
  Q 1111.08 685.92 1103.50 690.21
  A 0.61 0.60 66.4 0 0 1103.23 690.92
  Q 1113.17 720.83 1123.23 750.63
  Z"
/>
<rect fill="#6887fb" x="919.04" y="587.04" width="14.20" height="69.62" rx="6.95"/>
<rect fill="#5e60fa" x="1465.30" y="587.05" width="14.20" height="69.62" rx="6.94"/>
<path fill="#70a6fb" d="
  M 370.96 588.75
  Q 370.56 597.92 371.99 606.95
  Q 372.05 607.39 372.18 606.95
  Q 372.54 605.75 373.02 606.82
  A 0.39 0.32 -28.5 0 0 373.53 606.92
  L 373.77 606.79
  A 0.38 0.27 55.8 0 1 374.18 606.94
  C 375.95 609.46 379.30 606.44 381.28 605.84
  A 0.53 0.49 72.6 0 1 381.90 606.20
  Q 382.70 608.71 383.05 606.04
  Q 383.10 605.58 383.14 606.05
  C 383.28 607.82 382.77 611.86 383.92 613.09
  Q 384.27 613.47 384.29 612.95
  L 384.71 603.75
  L 383.51 683.49
  A 0.76 0.75 13.3 0 0 383.95 684.19
  C 391.40 687.58 412.35 699.03 414.87 706.91
  C 417.20 714.19 408.49 718.80 402.86 713.62
  Q 394.37 705.80 384.16 700.35
  A 0.60 0.60 -75.3 0 0 383.27 700.87
  Q 382.65 745.62 381.82 790.48
  C 381.74 794.99 380.46 798.35 375.82 799.08
  C 368.04 800.31 366.40 794.92 366.55 788.47
  Q 367.45 750.91 368.44 714.12
  Q 368.50 712.08 367.77 713.99
  Q 358.89 737.38 349.81 760.68
  Q 348.70 763.53 348.62 766.53
  Q 348.20 781.77 348.71 789.69
  C 349.33 799.29 337.81 803.03 334.88 794.58
  Q 334.26 792.78 334.25 787.83
  Q 334.24 775.09 334.27 762.45
  Q 334.27 761.41 334.65 760.44
  Q 351.51 716.42 368.50 672.47
  Q 369.55 669.75 369.60 666.84
  Q 370.25 627.80 370.96 588.75
  Z"
/>
<path fill="#73b3fc" d="
  M 353.56 637.94
  C 357.34 640.11 357.22 644.09 355.85 648.03
  Q 342.67 686.00 329.48 724.00
  Q 322.80 743.22 301.75 743.29
  Q 230.53 743.51 159.30 743.48
  Q 146.80 743.48 142.01 741.90
  C 130.39 738.07 126.78 730.04 122.90 718.01
  Q 111.55 682.78 100.18 647.57
  C 98.18 641.37 100.25 638.96 105.83 636.35
  C 112.81 633.08 120.81 628.47 128.41 627.26
  Q 228.19 611.35 327.96 627.28
  Q 331.98 627.92 335.74 629.59
  Q 350.28 636.05 353.56 637.94
  Z
  M 340.69 647.61
  C 335.33 645.24 329.91 642.02 324.16 641.12
  Q 228.41 626.06 132.66 641.02
  C 126.54 641.98 121.23 644.96 115.72 647.60
  A 0.56 0.56 -21.4 0 0 115.42 648.28
  Q 126.83 683.64 138.28 719.00
  C 141.05 727.55 146.20 729.23 155.06 729.24
  Q 228.90 729.27 302.75 729.25
  C 309.79 729.24 313.81 725.35 316.11 718.78
  Q 328.03 684.70 339.89 650.59
  Q 340.32 649.35 340.91 648.21
  A 0.44 0.43 25.4 0 0 340.69 647.61
  Z"
/>
<path fill="#626ffb" d="
  M 1063.98 728.77
  Q 1056.75 732.09 1051.47 737.49
  C 1049.37 739.63 1047.33 741.84 1044.30 742.11
  C 1037.65 742.71 1034.38 734.70 1039.01 729.76
  Q 1049.43 718.60 1063.63 713.04
  A 0.73 0.73 -10.5 0 0 1064.10 712.36
  Q 1064.23 700.16 1063.99 688.04
  C 1063.76 676.22 1077.92 676.51 1078.16 687.26
  Q 1078.43 699.03 1078.46 705.76
  Q 1078.47 708.50 1079.46 711.02
  Q 1093.77 747.44 1108.17 783.84
  Q 1108.50 784.66 1108.50 785.54
  Q 1108.51 827.50 1108.49 869.49
  Q 1108.49 873.63 1107.13 875.58
  C 1104.57 879.28 1097.97 879.15 1095.51 875.19
  Q 1094.45 873.49 1094.42 870.09
  Q 1094.11 832.46 1094.30 794.83
  C 1094.30 793.14 1094.92 789.32 1094.30 787.73
  Q 1087.00 769.03 1079.61 750.35
  A 0.48 0.33 69.2 0 0 1079.15 750.03
  Q 1078.91 750.10 1079.00 750.50
  C 1079.54 753.13 1079.39 755.81 1079.45 758.19
  Q 1080.91 814.85 1082.29 871.50
  C 1082.49 879.76 1069.86 880.88 1068.20 872.56
  Q 1068.09 872.03 1067.93 865.41
  Q 1066.21 797.24 1064.45 729.06
  A 0.33 0.33 -13.0 0 0 1063.98 728.77
  Z"
/>
<path fill="#5e60fa" d="
  M 1319.50 749.53
  Q 1312.41 767.16 1305.50 784.88
  Q 1304.48 787.50 1304.49 790.30
  Q 1304.60 830.46 1304.29 870.60
  C 1304.21 881.08 1290.21 880.96 1290.26 870.26
  C 1290.37 842.64 1289.71 815.07 1290.21 787.45
  Q 1290.27 784.56 1291.33 781.85
  Q 1305.13 746.74 1319.06 711.70
  C 1321.66 705.17 1320.85 695.15 1320.95 688.10
  Q 1321.00 684.28 1322.02 682.61
  C 1324.96 677.74 1332.13 678.29 1334.41 683.34
  Q 1335.24 685.20 1335.14 689.43
  Q 1334.78 703.61 1334.69 717.81
  A 0.77 0.76 -78.2 0 0 1335.14 718.51
  Q 1349.26 724.79 1359.55 734.43
  C 1365.39 739.89 1360.29 748.46 1352.55 746.71
  Q 1351.00 746.36 1346.91 742.36
  Q 1342.65 738.19 1334.77 734.50
  A 0.32 0.31 12.7 0 0 1334.32 734.78
  Q 1333.15 801.94 1331.99 869.04
  Q 1331.92 873.03 1331.04 874.67
  C 1328.39 879.63 1321.11 879.41 1318.60 874.59
  Q 1317.63 872.73 1317.71 868.74
  Q 1318.83 809.15 1319.68 749.57
  Q 1319.69 749.06 1319.50 749.53
  Z"
/>
<rect fill="#657dfb" x="919.02" y="697.98" width="14.24" height="69.46" rx="6.95"/>
<rect fill="#5c57fa" x="1465.28" y="697.98" width="14.24" height="69.48" rx="6.95"/>
<path fill="#698dfb" d="
  M 757.12 855.61
  C 764.57 862.39 755.10 873.29 747.24 865.84
  Q 739.89 858.89 732.11 852.40
  C 688.61 816.13 633.33 804.04 580.80 828.05
  C 562.78 836.29 547.35 848.44 532.48 862.22
  C 526.85 867.43 518.07 863.11 520.09 856.11
  Q 520.75 853.85 523.98 850.68
  C 564.82 810.66 619.26 790.43 675.83 806.14
  C 705.91 814.50 733.51 832.19 755.57 854.20
  Q 755.63 854.25 757.12 855.61
  Z"
/>
<rect fill="#6478fb" x="919.02" y="808.77" width="14.24" height="69.48" rx="6.95"/>
<rect fill="#5b51fa" x="1465.28" y="808.79" width="14.24" height="69.46" rx="6.95"/>
<path fill="#72affb" d="
  M 131.44 898.56
  C 129.06 897.00 128.55 894.72 127.71 892.08
  Q 117.71 860.87 110.81 828.81
  C 110.00 825.06 109.74 821.99 112.73 819.58
  C 118.10 815.24 123.29 819.27 124.56 825.03
  Q 131.05 854.66 142.21 890.56
  C 144.17 896.90 137.03 902.24 131.44 898.56
  Z"
/>
<path fill="#6889fb" d="
  M 558.30 890.73
  C 549.48 898.84 540.25 887.72 548.60 880.19
  Q 551.25 877.81 551.31 877.75
  C 605.86 825.68 678.53 831.77 730.02 884.76
  C 735.87 890.78 726.89 901.33 718.61 893.45
  C 692.33 868.42 660.50 852.26 623.33 857.02
  C 597.54 860.32 577.08 873.47 558.30 890.73
  Z"
/>
<path fill="#6887fb" d="
  M 575.19 919.06
  C 569.27 915.05 571.93 909.83 576.15 905.78
  C 616.28 867.36 663.10 870.12 702.01 907.88
  Q 705.16 910.93 705.81 913.46
  C 707.60 920.30 699.19 924.86 693.97 919.97
  C 684.15 910.77 674.43 902.95 661.98 897.51
  C 633.10 884.89 606.01 896.18 585.05 917.04
  C 582.23 919.85 578.53 921.32 575.19 919.06
  Z"
/>
<path fill="#5b51fa" d="
  M 1317.94 1020.06
  C 1314.38 1017.28 1314.99 1013.37 1317.10 1009.60
  Q 1333.26 980.75 1349.90 943.17
  C 1353.99 933.95 1367.03 939.35 1362.80 949.27
  Q 1348.14 983.61 1329.80 1016.12
  C 1327.04 1021.01 1323.07 1024.07 1317.94 1020.06
  Z"
/>
<path fill="#6887fb" d="
  M 893.97 1042.84
  Q 895.88 1045.14 898.92 1045.64
  Q 899.24 1045.70 898.99 1045.88
  Q 898.17 1046.49 899.53 1046.33
  A 1.54 0.99 0.6 0 1 901.34 1047.52
  Q 898.52 1055.68 889.99 1056.60
  C 846.80 1041.96 804.89 1023.31 764.24 1002.71
  C 749.16 995.06 733.41 986.45 718.66 980.09
  C 680.45 963.62 640.79 958.04 599.29 962.22
  Q 513.60 970.84 427.23 979.58
  Q 425.04 979.80 425.92 981.81
  C 431.19 993.89 426.45 1001.28 420.19 1014.96
  Q 414.37 1027.66 408.44 1040.31
  Q 406.28 1044.92 407.56 1048.48
  Q 409.96 1055.17 408.90 1061.13
  C 406.88 1072.43 395.20 1081.27 385.04 1085.78
  Q 368.81 1092.97 352.49 1100.01
  A 1.95 1.95 89.3 0 0 351.43 1101.10
  Q 346.46 1113.78 347.57 1127.70
  A 0.58 0.55 -1.1 0 0 348.12 1128.21
  C 351.13 1128.29 354.39 1128.00 357.10 1128.75
  C 366.64 1131.38 368.96 1138.35 368.99 1147.80
  Q 369.01 1158.46 369.00 1169.13
  C 369.00 1178.07 367.87 1183.78 360.12 1187.99
  A 0.59 0.58 -24.2 0 0 359.85 1188.69
  L 363.50 1198.96
  Q 362.94 1199.69 362.32 1199.79
  A 1.06 0.60 56.2 0 1 361.52 1199.39
  Q 360.75 1198.51 359.52 1198.30
  A 1.23 1.23 32.1 0 0 358.59 1198.51
  L 352.95 1202.60
  A 0.44 0.43 -33.4 0 1 352.31 1202.48
  C 352.25 1202.36 350.80 1199.28 350.38 1199.42
  A 0.47 0.39 -19.2 0 1 349.81 1199.21
  Q 349.17 1197.43 348.71 1199.75
  L 345.29 1190.08
  A 0.75 0.71 80.8 0 0 344.64 1189.58
  C 340.63 1189.41 336.07 1189.97 332.55 1188.82
  C 323.82 1185.98 321.51 1179.44 321.50 1170.53
  Q 321.48 1158.51 321.52 1146.49
  C 321.55 1137.89 324.28 1131.61 332.70 1128.93
  A 0.98 0.97 -10.3 0 0 333.37 1127.97
  C 332.79 1113.93 334.89 1104.08 340.55 1090.24
  Q 354.81 1055.35 369.15 1020.49
  Q 375.26 1005.62 377.11 1002.15
  C 386.83 983.91 404.71 969.49 425.26 965.60
  Q 427.11 965.24 445.13 963.43
  Q 520.34 955.87 595.54 948.25
  Q 608.33 946.95 615.49 946.69
  Q 682.74 944.25 742.54 975.75
  C 791.22 1001.39 841.85 1025.06 893.97 1042.84
  Z
  M 411.57 985.98
  C 400.16 992.58 391.15 1003.81 386.26 1015.90
  Q 373.15 1048.32 359.95 1080.71
  Q 359.76 1081.17 360.22 1080.98
  Q 370.49 1076.73 380.63 1072.24
  Q 390.31 1067.95 394.95 1058.78
  A 3.11 3.10 47.9 0 0 395.07 1056.26
  C 391.19 1046.31 392.74 1039.24 397.54 1029.28
  Q 404.91 1013.98 412.07 998.57
  C 414.22 993.93 414.43 990.55 412.24 986.17
  A 0.48 0.48 -28.8 0 0 411.57 985.98
  Z
  M 354.74 1143.67
  A 1.17 1.17 0.0 0 0 353.57 1142.50
  L 336.91 1142.50
  A 1.17 1.17 0.0 0 0 335.74 1143.67
  L 335.74 1174.09
  A 1.17 1.17 0.0 0 0 336.91 1175.26
  L 353.57 1175.26
  A 1.17 1.17 0.0 0 0 354.74 1174.09
  L 354.74 1143.67
  Z"
/>
<path fill="#6ea0fb" d="
  M 195.93 1038.06
  Q 194.76 1037.29 194.03 1036.10
  Q 174.32 1004.02 158.34 970.02
  C 156.49 966.09 155.42 963.12 158.21 959.81
  C 162.21 955.06 168.20 957.40 170.64 962.59
  Q 185.86 995.01 205.99 1028.29
  C 210.17 1035.20 202.82 1042.59 195.93 1038.06
  Z"
/>
<path fill="#657dfb" d="
  M 491.93 1057.93
  C 467.62 1055.79 459.26 1038.84 449.05 1019.82
  C 446.18 1014.48 445.34 1010.22 448.43 1005.13
  C 455.11 994.16 470.49 991.59 482.25 990.44
  Q 547.52 984.05 612.81 977.71
  C 650.83 974.01 689.37 983.35 722.63 1001.71
  C 760.07 1022.38 797.86 1042.47 835.42 1062.91
  Q 842.17 1066.58 844.10 1069.30
  C 848.12 1074.99 845.30 1084.83 838.33 1087.24
  Q 835.70 1088.15 830.09 1087.65
  Q 661.01 1072.77 491.93 1057.93
  Z
  M 631.88 1055.81
  L 822.27 1072.63
  Q 823.58 1072.75 822.42 1072.12
  Q 768.73 1043.03 715.16 1013.76
  Q 674.39 991.49 626.87 990.97
  A 0.80 0.80 -2.3 0 0 626.06 991.84
  L 631.58 1055.50
  A 0.34 0.34 1.0 0 0 631.88 1055.81
  Z
  M 471.39 1030.38
  C 478.52 1042.39 488.94 1043.23 502.34 1044.43
  Q 559.42 1049.53 616.55 1054.51
  A 0.56 0.56 0.0 0 0 617.16 1053.90
  L 611.81 993.01
  A 0.85 0.85 -5.0 0 0 610.88 992.23
  Q 544.41 998.72 479.28 1005.25
  C 473.20 1005.86 466.17 1007.34 461.37 1011.39
  A 0.63 0.61 56.1 0 0 461.23 1012.16
  Q 466.09 1021.45 471.39 1030.38
  Z"
/>
<path fill="#5b51fa" d="
  M 1100.48 1268.99
  C 1094.48 1274.59 1084.30 1265.36 1092.32 1257.15
  C 1126.64 1222.03 1148.73 1176.27 1140.24 1126.06
  C 1135.00 1095.06 1118.63 1067.46 1096.95 1045.14
  Q 1094.08 1042.19 1093.38 1040.64
  C 1090.07 1033.37 1099.28 1027.34 1105.03 1032.96
  C 1154.10 1080.94 1172.09 1148.59 1141.65 1212.34
  Q 1125.95 1245.23 1100.48 1268.99
  Z"
/>
<path fill="#6b93fb" d="
  M 240.19 1277.06
  Q 215.31 1253.36 200.92 1221.68
  C 171.49 1156.85 194.49 1089.44 242.77 1041.66
  C 250.51 1034.00 260.42 1044.19 252.03 1052.56
  Q 228.37 1076.18 214.84 1105.82
  C 189.06 1162.28 205.51 1221.22 247.55 1264.27
  Q 250.72 1267.52 251.44 1269.94
  C 253.35 1276.47 245.16 1281.80 240.19 1277.06
  Z"
/>
<path fill="#5e60fa" d="
  M 893.97 1042.84
  C 912.65 1049.11 932.31 1054.70 951.93 1056.88
  Q 963.83 1058.19 967.30 1059.18
  C 982.10 1063.39 994.33 1074.10 1003.29 1086.34
  Q 1030.58 1123.59 1028.58 1169.77
  C 1027.34 1198.39 1011.79 1224.00 984.76 1235.02
  Q 982.77 1235.83 973.21 1238.52
  A 0.75 0.74 86.0 0 0 972.67 1239.15
  Q 968.06 1274.09 939.06 1289.61
  C 918.01 1300.88 892.48 1298.78 873.37 1284.61
  Q 852.06 1268.81 848.01 1240.77
  A 0.62 0.62 85.7 0 0 847.40 1240.24
  L 633.25 1240.21
  L 675.19 1239.96
  Q 675.57 1239.96 675.18 1239.94
  Q 666.51 1239.65 657.81 1239.68
  Q 657.30 1239.68 657.81 1239.66
  Q 663.37 1239.40 668.94 1239.47
  Q 669.80 1239.48 668.95 1239.39
  L 661.07 1238.62
  Q 660.89 1238.60 661.06 1238.60
  Q 665.35 1238.57 662.33 1238.04
  A 0.63 0.50 8.3 0 1 661.80 1237.47
  L 662.02 1235.52
  Q 662.10 1234.77 665.28 1231.82
  Q 666.79 1230.42 665.46 1229.23
  A 1.67 1.18 -14.5 0 0 664.56 1228.89
  Q 661.40 1228.63 663.24 1228.08
  Q 663.67 1227.95 663.23 1227.82
  Q 661.80 1227.39 662.72 1226.97
  Q 663.09 1226.80 662.69 1226.79
  Q 653.47 1226.71 644.25 1226.43
  Q 643.42 1226.40 644.50 1226.04
  L 847.45 1226.01
  A 0.64 0.60 -82.6 0 0 848.04 1225.52
  L 851.57 1211.00
  A 0.39 0.37 -83.2 0 0 851.21 1210.52
  L 730.00 1209.96
  L 727.88 1207.47
  A 0.50 0.42 49.9 0 1 727.88 1206.82
  Q 732.58 1202.79 736.58 1198.03
  A 1.74 0.66 -9.4 0 1 737.39 1197.56
  L 739.75 1196.75
  Q 740.43 1196.52 739.69 1196.53
  C 738.27 1196.54 728.62 1196.68 728.50 1195.60
  L 858.76 1196.32
  A 0.95 0.91 -71.3 0 0 859.54 1195.91
  C 876.55 1171.60 910.48 1163.86 936.64 1175.78
  C 955.85 1184.53 968.61 1202.40 972.15 1223.24
  A 0.70 0.70 77.6 0 0 973.02 1223.80
  C 1008.08 1214.09 1018.33 1179.94 1013.47 1147.45
  Q 1010.64 1128.46 1001.96 1111.21
  A 0.96 0.93 79.7 0 0 1001.23 1110.69
  C 988.42 1109.03 971.40 1108.14 961.14 1104.01
  C 946.44 1098.09 936.67 1084.38 933.47 1068.89
  A 0.79 0.79 -0.0 0 0 932.87 1068.29
  Q 911.03 1063.70 889.99 1056.60
  Q 898.52 1055.68 901.34 1047.52
  A 1.54 0.99 0.6 0 0 899.53 1046.33
  Q 898.17 1046.49 898.99 1045.88
  Q 899.24 1045.70 898.92 1045.64
  Q 895.88 1045.14 893.97 1042.84
  Z
  M 949.02 1071.63
  C 952.62 1082.24 961.64 1090.81 972.96 1092.50
  Q 982.09 1093.86 991.27 1095.01
  Q 992.14 1095.12 991.62 1094.41
  C 984.66 1084.95 975.09 1076.50 963.72 1072.96
  C 959.46 1071.64 954.27 1071.53 949.52 1071.00
  A 0.48 0.48 83.7 0 0 949.02 1071.63
  Z
  M 910.2500 1282.5500
  A 49.01 48.28 90.0 0 0 958.5300 1233.5400
  A 49.01 48.28 90.0 0 0 910.2500 1184.5300
  A 49.01 48.28 90.0 0 0 861.9700 1233.5400
  A 49.01 48.28 90.0 0 0 910.2500 1282.5500
  Z"
/>
<path fill="#5b54fa" d="
  M 1073.48 1239.99
  C 1068.39 1245.05 1060.03 1241.30 1061.15 1234.17
  C 1061.69 1230.70 1066.86 1226.19 1069.28 1223.54
  C 1111.53 1177.30 1112.46 1116.60 1068.17 1070.61
  C 1064.86 1067.18 1062.02 1063.80 1064.82 1059.45
  C 1067.80 1054.82 1072.95 1055.02 1076.68 1058.83
  C 1130.68 1114.00 1128.02 1185.87 1073.48 1239.99
  Z"
/>
<path fill="#6a90fb" d="
  M 268.69 1251.31
  C 251.59 1234.79 237.95 1213.28 232.03 1190.21
  C 220.41 1144.93 238.87 1101.76 270.73 1069.74
  C 278.22 1062.22 288.61 1072.00 280.29 1080.45
  C 232.88 1128.56 230.14 1190.92 277.74 1240.41
  C 285.59 1248.57 275.58 1257.97 268.69 1251.31
  Z"
/>
<path fill="#594cfa" d="
  M 1236.27 1143.01
  C 1229.53 1150.17 1218.62 1140.97 1226.79 1132.18
  Q 1252.13 1104.95 1274.63 1074.89
  Q 1276.17 1072.82 1278.70 1072.33
  Q 1285.11 1071.07 1287.26 1077.78
  Q 1288.16 1080.59 1286.40 1082.97
  Q 1263.32 1114.26 1236.27 1143.01
  Z"
/>
<path fill="#5c57fa" d="
  M 1047.77 1214.54
  C 1042.37 1219.81 1033.58 1214.91 1035.78 1207.65
  Q 1036.38 1205.67 1039.08 1202.93
  C 1049.69 1192.14 1059.34 1178.21 1063.20 1163.75
  C 1070.29 1137.16 1058.40 1113.91 1039.97 1095.25
  C 1032.75 1087.94 1042.34 1077.91 1049.77 1084.96
  Q 1063.96 1098.45 1072.29 1116.48
  C 1088.99 1152.62 1074.39 1188.52 1047.77 1214.54
  Z"
/>
<path fill="#698dfb" d="
  M 295.07 1224.93
  Q 281.49 1211.82 273.25 1195.12
  C 255.49 1159.11 268.81 1122.98 295.50 1096.35
  Q 298.39 1093.47 300.46 1092.84
  C 305.17 1091.41 310.32 1096.60 309.05 1101.29
  Q 308.50 1103.36 305.45 1106.52
  C 293.93 1118.47 284.15 1132.89 280.48 1148.99
  C 274.61 1174.73 287.95 1197.16 305.19 1214.81
  C 311.69 1221.47 301.83 1231.46 295.07 1224.93
  Z"
/>
<path fill="#6478fb" d="
  M 728.50 1195.60
  C 728.62 1196.68 738.27 1196.54 739.69 1196.53
  Q 740.43 1196.52 739.75 1196.75
  L 737.39 1197.56
  A 1.74 0.66 -9.4 0 0 736.58 1198.03
  Q 732.58 1202.79 727.88 1206.82
  A 0.50 0.42 49.9 0 0 727.88 1207.47
  L 730.00 1209.96
  Q 636.00 1209.26 542.00 1208.86
  C 528.08 1208.80 512.58 1204.06 498.99 1200.22
  Q 497.60 1199.83 498.31 1201.09
  Q 504.49 1212.13 506.22 1225.52
  A 0.58 0.57 -4.0 0 0 506.79 1226.01
  L 644.50 1226.04
  Q 643.42 1226.40 644.25 1226.43
  Q 653.47 1226.71 662.69 1226.79
  Q 663.09 1226.80 662.72 1226.97
  Q 661.80 1227.39 663.23 1227.82
  Q 663.67 1227.95 663.24 1228.08
  Q 661.40 1228.63 664.56 1228.89
  A 1.67 1.18 -14.5 0 1 665.46 1229.23
  Q 666.79 1230.42 665.28 1231.82
  Q 662.10 1234.77 662.02 1235.52
  L 661.80 1237.47
  A 0.63 0.50 8.3 0 0 662.33 1238.04
  Q 665.35 1238.57 661.06 1238.60
  Q 660.89 1238.60 661.07 1238.62
  L 668.95 1239.39
  Q 669.80 1239.48 668.94 1239.47
  Q 663.37 1239.40 657.81 1239.66
  Q 657.30 1239.68 657.81 1239.68
  Q 666.51 1239.65 675.18 1239.94
  Q 675.57 1239.96 675.19 1239.96
  L 633.25 1240.21
  L 506.25 1240.24
  A 0.39 0.38 4.4 0 0 505.87 1240.56
  C 499.89 1280.94 458.54 1307.10 419.80 1290.47
  C 398.76 1281.44 386.67 1264.45 381.95 1241.63
  A 0.69 0.66 85.8 0 0 381.35 1241.09
  C 377.69 1240.82 374.01 1241.90 371.18 1239.54
  C 360.59 1230.70 353.18 1212.51 348.71 1199.75
  Q 349.17 1197.43 349.81 1199.21
  A 0.47 0.39 -19.2 0 0 350.38 1199.42
  C 350.80 1199.28 352.25 1202.36 352.31 1202.48
  A 0.44 0.43 -33.4 0 0 352.95 1202.60
  L 358.59 1198.51
  A 1.23 1.23 32.1 0 1 359.52 1198.30
  Q 360.75 1198.51 361.52 1199.39
  A 1.06 0.60 56.2 0 0 362.32 1199.79
  Q 362.94 1199.69 363.50 1198.96
  Q 368.93 1213.22 377.24 1226.00
  A 1.55 1.31 78.7 0 0 377.98 1226.59
  Q 379.54 1227.10 380.96 1226.82
  A 0.68 0.65 87.3 0 0 381.49 1226.21
  C 384.85 1187.31 417.88 1163.74 455.75 1169.73
  Q 467.47 1171.59 476.85 1178.10
  Q 479.28 1179.78 481.66 1180.48
  Q 504.35 1187.12 527.32 1192.65
  C 532.70 1193.95 537.50 1194.77 543.29 1194.76
  C 605.02 1194.58 666.77 1195.44 728.50 1195.60
  Z
  M 450.7517 1280.5981
  A 49.09 48.33 81.8 0 0 491.5859 1225.1167
  A 49.09 48.33 81.8 0 0 436.7483 1183.4219
  A 49.09 48.33 81.8 0 0 395.9141 1238.9033
  A 49.09 48.33 81.8 0 0 450.7517 1280.5981
  Z"
/>
<path fill="#657dfb" d="
  M 474.67 1231.39
  A 31.51 31.51 0.0 0 1 443.16 1262.90
  A 31.51 31.51 0.0 0 1 411.65 1231.39
  A 31.51 31.51 0.0 0 1 443.16 1199.88
  A 31.51 31.51 0.0 0 1 474.67 1231.39
  Z
  M 442.7557 1248.7655
  A 17.38 17.06 91.3 0 0 460.2056 1231.7770
  A 17.38 17.06 91.3 0 0 443.5443 1214.0145
  A 17.38 17.06 91.3 0 0 426.0944 1231.0030
  A 17.38 17.06 91.3 0 0 442.7557 1248.7655
  Z"
/>
<path fill="#5d5cfa" d="
  M 909.7720 1263.3062
  A 30.43 30.11 90.9 0 1 880.1437 1232.4071
  A 30.43 30.11 90.9 0 1 910.7280 1202.4538
  A 30.43 30.11 90.9 0 1 940.3563 1233.3529
  A 30.43 30.11 90.9 0 1 909.7720 1263.3062
  Z
  M 910.5498 1249.0170
  A 16.14 15.82 88.9 0 0 926.0571 1232.5763
  A 16.14 15.82 88.9 0 0 909.9302 1216.7430
  A 16.14 15.82 88.9 0 0 894.4229 1233.1837
  A 16.14 15.82 88.9 0 0 910.5498 1249.0170
  Z"
/>
<path fill="#5b51fa" d="
  M 962.52 1317.55
  C 955.70 1319.69 949.47 1306.95 961.13 1303.00
  Q 995.14 1291.47 1027.73 1276.39
  Q 1031.09 1274.83 1032.95 1274.76
  C 1037.38 1274.59 1040.62 1278.26 1040.19 1282.57
  C 1039.86 1285.98 1037.67 1287.50 1034.53 1288.97
  Q 995.62 1307.16 962.52 1317.55
  Z"
/>
<path fill="#626ffb" d="
  M 507.77 1302.11
  C 502.68 1299.98 499.13 1296.62 502.33 1291.04
  C 504.82 1286.72 509.30 1287.55 513.55 1289.25
  Q 547.33 1302.80 582.34 1312.74
  C 590.22 1314.98 590.59 1325.45 582.96 1326.66
  Q 580.73 1327.02 575.84 1325.66
  Q 541.07 1316.00 507.77 1302.11
  Z"
/>
<path fill="#5c57fa" d="
  M 812.78 1348.52
  C 805.00 1349.24 799.81 1340.11 806.47 1335.60
  Q 808.17 1334.44 812.93 1334.00
  Q 848.56 1330.68 883.67 1323.76
  Q 887.06 1323.09 888.86 1323.54
  C 894.81 1325.03 896.07 1333.14 890.76 1336.35
  Q 889.52 1337.10 886.60 1337.69
  Q 849.97 1345.04 812.78 1348.52
  Z"
/>
<path fill="#5f63fa" d="
  M 653.32 1342.15
  C 646.17 1337.60 650.23 1327.91 658.68 1329.14
  C 685.17 1333.00 709.43 1334.54 734.06 1336.25
  C 740.61 1336.71 742.91 1345.09 738.24 1348.58
  C 735.05 1350.97 728.06 1350.01 723.94 1349.81
  Q 689.32 1348.13 655.75 1343.06
  Q 654.44 1342.86 653.32 1342.15
  Z"
/>
</svg>
