<?xml version="1.0" encoding="UTF-8" standalone="no"?>
<!DOCTYPE svg PUBLIC "-//W3C//DTD SVG 1.1//EN" "http://www.w3.org/Graphics/SVG/1.1/DTD/svg11.dtd">
<svg xmlns="http://www.w3.org/2000/svg" version="1.1" viewBox="0 0 208 196">
<g stroke-width="2.00" fill="none" stroke-linecap="butt">
<path stroke="#90a6cd" vector-effect="non-scaling-stroke" d="
  M 15.64 125.05
  C 14.23 130.47 11.21 134.49 11.48 140.47
  A 0.83 0.79 -16.8 0 1 11.07 141.20
  C 9.41 142.17 8.52 143.06 8.51 145.18
  C 8.49 149.70 6.73 157.84 14.24 157.46
  A 0.67 0.63 -9.9 0 1 14.89 157.89
  C 15.98 161.23 18.93 170.15 23.63 170.76
  A 0.76 0.71 -2.6 0 1 24.25 171.29
  C 27.89 185.82 45.03 189.20 54.00 177.21"
/>
<path stroke="#cbebfb" vector-effect="non-scaling-stroke" d="
  M 54.00 177.21
  C 82.40 196.34 120.73 199.13 151.00 181.96"
/>
<path stroke="#90a6cd" vector-effect="non-scaling-stroke" d="
  M 151.00 181.96
  C 161.67 188.72 174.62 182.89 176.65 170.47
  A 0.89 0.89 -6.6 0 1 177.19 169.79
  Q 195.83 162.16 190.05 141.50"
/>
<path stroke="#cbebfb" vector-effect="non-scaling-stroke" d="
  M 190.05 141.50
  Q 193.92 136.14 196.64 127.15
  Q 204.42 101.42 198.24 76.91"
/>
<path stroke="#90a6cd" vector-effect="non-scaling-stroke" d="
  M 198.24 76.91
  L 203.79 72.01
  A 1.77 1.67 51.3 0 0 203.98 69.70
  Q 197.23 60.53 191.19 52.57
  Q 189.73 50.64 187.79 50.75"
/>
<path stroke="#cbebfb" vector-effect="non-scaling-stroke" d="
  M 187.79 50.75
  Q 186.47 49.67 186.21 48.00"
/>
<path stroke="#90a6cd" vector-effect="non-scaling-stroke" d="
  M 186.21 48.00
  L 198.22 38.95
  A 1.55 1.40 -36.7 0 0 198.62 36.92
  L 192.29 28.27
  A 1.92 1.76 -36.0 0 0 189.71 27.98
  L 177.50 36.79"
/>
<path stroke="#cbebfb" vector-effect="non-scaling-stroke" d="
  M 177.50 36.79
  L 175.71 34.00"
/>
<path stroke="#90a6cd" vector-effect="non-scaling-stroke" d="
  M 175.71 34.00
  Q 176.41 32.41 175.43 31.07
  Q 169.36 22.77 162.33 13.25
  Q 161.11 11.59 159.48 12.73
  L 154.00 16.54"
/>
<path stroke="#cbebfb" vector-effect="non-scaling-stroke" d="
  M 154.00 16.54
  C 79.88 -25.12 -8.48 42.46 15.64 125.05"
/>
<path stroke="#5b92c8" vector-effect="non-scaling-stroke" d="
  M 154.00 16.54
  L 139.16 27.63
  Q 137.31 29.01 138.66 30.84
  L 152.16 49.10
  A 1.61 1.56 54.0 0 0 154.35 49.48
  L 162.65 43.57
  A 0.82 0.68 -44.4 0 1 163.49 43.50
  Q 164.73 44.30 164.80 45.77
  A 1.02 0.93 -21.3 0 1 164.40 46.58
  L 148.17 58.53
  A 0.68 0.67 -45.4 0 1 147.37 58.54
  C 144.44 56.39 127.13 48.66 126.70 55.27
  A 1.53 1.22 33.7 0 0 126.99 56.18
  L 152.26 90.48
  Q 154.81 93.93 156.22 89.93
  Q 159.64 80.23 156.31 70.47
  A 0.69 0.67 63.0 0 1 156.55 69.70
  L 173.06 57.71
  A 0.75 0.68 -44.6 0 1 173.89 57.68
  Q 174.97 58.43 175.35 59.71
  A 0.78 0.66 -28.6 0 1 175.05 60.49
  L 167.30 66.41
  Q 165.68 67.64 166.92 69.28
  L 180.31 87.16
  Q 181.66 88.97 183.57 87.58
  L 198.24 76.91"
/>
<path stroke="#5b92c8" vector-effect="non-scaling-stroke" d="
  M 190.05 141.50
  C 187.35 131.76 181.90 124.09 171.27 122.53
  C 153.72 119.96 135.49 111.03 119.15 102.68
  C 103.01 94.43 91.93 93.35 72.81 95.25
  Q 55.16 97.00 37.49 98.74
  C 23.28 100.14 20.48 114.51 15.64 125.05"
/>
<path stroke="#5b92c8" vector-effect="non-scaling-stroke" d="
  M 175.71 34.00
  L 167.39 40.19
  A 0.66 0.60 -31.5 0 0 167.17 40.95
  Q 167.68 42.07 168.61 42.79
  A 0.68 0.65 -43.6 0 0 169.42 42.79
  L 177.50 36.79"
/>
<path stroke="#5b92c8" vector-effect="non-scaling-stroke" d="
  M 186.21 48.00
  L 177.95 54.02
  A 0.90 0.77 -24.3 0 0 177.58 54.81
  Q 177.79 56.30 179.20 56.83
  A 0.97 0.91 -52.7 0 0 180.09 56.68
  L 187.79 50.75"
/>
<path stroke="#5b92c8" vector-effect="non-scaling-stroke" d="
  M 151.00 181.96
  Q 145.40 177.76 144.26 171.35
  A 1.33 1.33 -5.2 0 0 142.95 170.26
  L 57.30 170.26
  A 0.78 0.67 -77.0 0 0 56.65 170.74
  L 54.00 177.21"
/>
<path stroke="#5b92c8" vector-effect="non-scaling-stroke" d="
  M 139.04 93.61
  Q 123.14 85.99 123.16 67.93
  C 123.16 65.92 121.99 64.88 120.05 65.67
  A 1.10 1.00 88.0 0 0 119.45 66.38
  Q 118.73 68.98 119.04 71.77
  Q 121.17 91.26 139.25 98.18
  A 1.08 0.98 38.3 0 0 140.14 98.12
  C 143.48 96.17 141.13 94.61 139.04 93.61"
/>
<path stroke="#5b92c8" vector-effect="non-scaling-stroke" d="
  M 140.63 86.61
  Q 130.55 82.17 130.59 71.01
  A 1.17 1.05 -71.1 0 0 130.23 70.17
  C 128.01 68.17 126.41 70.13 126.45 72.45
  Q 126.64 84.56 137.79 89.79
  Q 140.25 90.94 141.34 88.39
  A 1.37 1.37 -66.8 0 0 140.63 86.61"
/>
<path stroke="#8d968d" vector-effect="non-scaling-stroke" d="
  M 160.3495 17.8237
  A 0.41 0.41 0.0 0 0 159.7765 17.7350
  L 153.7565 22.1409
  A 0.41 0.41 0.0 0 0 153.6678 22.7139
  L 157.2705 27.6363
  A 0.41 0.41 0.0 0 0 157.8435 27.7250
  L 163.8635 23.3191
  A 0.41 0.41 0.0 0 0 163.9522 22.7461
  L 160.3495 17.8237"
/>
<path stroke="#8d968d" vector-effect="non-scaling-stroke" d="
  M 150.1846 25.4157
  A 0.56 0.56 0.0 0 0 149.4002 25.3069
  L 143.6735 29.6379
  A 0.56 0.56 0.0 0 0 143.5647 30.4223
  L 147.0754 35.0643
  A 0.56 0.56 0.0 0 0 147.8598 35.1731
  L 153.5865 30.8421
  A 0.56 0.56 0.0 0 0 153.6953 30.0577
  L 150.1846 25.4157"
/>
<path stroke="#8d968d" vector-effect="non-scaling-stroke" d="
  M 167.0785 26.9644
  A 0.51 0.51 0.0 0 0 166.3658 26.8540
  L 160.5072 31.1418
  A 0.51 0.51 0.0 0 0 160.3969 31.8546
  L 163.8815 36.6156
  A 0.51 0.51 0.0 0 0 164.5942 36.7260
  L 170.4528 32.4382
  A 0.51 0.51 0.0 0 0 170.5631 31.7254
  L 167.0785 26.9644"
/>
<path stroke="#90a6cd" vector-effect="non-scaling-stroke" d="
  M 190.7148 33.0801
  A 0.40 0.40 0.0 0 0 190.1555 32.9955
  L 151.3757 61.5864
  A 0.40 0.40 0.0 0 0 151.2911 62.1457
  L 153.9852 65.7999
  A 0.40 0.40 0.0 0 0 154.5445 65.8845
  L 193.3243 37.2936
  A 0.40 0.40 0.0 0 0 193.4089 36.7343
  L 190.7148 33.0801"
/>
<path stroke="#8d968d" vector-effect="non-scaling-stroke" d="
  M 156.8703 34.4826
  A 0.54 0.54 0.0 0 0 156.1146 34.3724
  L 150.3579 38.6633
  A 0.54 0.54 0.0 0 0 150.2476 39.4190
  L 153.7497 44.1174
  A 0.54 0.54 0.0 0 0 154.5054 44.2276
  L 160.2621 39.9367
  A 0.54 0.54 0.0 0 0 160.3724 39.1810
  L 156.8703 34.4826"
/>
<path stroke="#8d968d" vector-effect="non-scaling-stroke" d="
  M 188.6982 56.4166
  A 0.57 0.57 0.0 0 0 187.9005 56.3003
  L 182.2239 60.5314
  A 0.57 0.57 0.0 0 0 182.1076 61.3291
  L 185.5618 65.9634
  A 0.57 0.57 0.0 0 0 186.3595 66.0797
  L 192.0361 61.8486
  A 0.57 0.57 0.0 0 0 192.1524 61.0509
  L 188.6982 56.4166"
/>
<path stroke="#2688c6" vector-effect="non-scaling-stroke" d="
  M 153.49 83.28
  C 154.72 70.61 146.72 59.40 134.01 57.47
  Q 133.12 57.34 133.66 58.06
  L 152.45 83.56
  Q 153.35 84.78 153.49 83.28"
/>
<path stroke="#8d968d" vector-effect="non-scaling-stroke" d="
  M 178.4993 63.8667
  A 0.48 0.48 0.0 0 0 177.8266 63.7757
  L 171.9878 68.2237
  A 0.48 0.48 0.0 0 0 171.8969 68.8964
  L 175.5207 73.6533
  A 0.48 0.48 0.0 0 0 176.1934 73.7443
  L 182.0322 69.2963
  A 0.48 0.48 0.0 0 0 182.1231 68.6236
  L 178.4993 63.8667"
/>
<path stroke="#8d968d" vector-effect="non-scaling-stroke" d="
  M 195.3340 65.3058
  A 0.44 0.44 0.0 0 0 194.7181 65.2171
  L 188.7767 69.6618
  A 0.44 0.44 0.0 0 0 188.6879 70.2777
  L 192.3060 75.1142
  A 0.44 0.44 0.0 0 0 192.9219 75.2029
  L 198.8633 70.7582
  A 0.44 0.44 0.0 0 0 198.9521 70.1423
  L 195.3340 65.3058"
/>
<path stroke="#8d968d" vector-effect="non-scaling-stroke" d="
  M 185.2763 72.9606
  A 0.52 0.52 0.0 0 0 184.5486 72.8544
  L 178.7758 77.1573
  A 0.52 0.52 0.0 0 0 178.6697 77.8850
  L 182.1837 82.5994
  A 0.52 0.52 0.0 0 0 182.9114 82.7056
  L 188.6842 78.4027
  A 0.52 0.52 0.0 0 0 188.7903 77.6750
  L 185.2763 72.9606"
/>
<path stroke="#90a6cd" vector-effect="non-scaling-stroke" d="
  M 182.36 136.83
  C 174.49 135.57 168.57 135.47 166.08 126.58
  A 0.90 0.89 89.4 0 0 165.45 125.96
  Q 147.72 121.32 131.24 113.27
  C 115.11 105.40 100.68 96.69 82.75 98.52
  Q 59.86 100.85 36.92 103.12
  A 0.58 0.56 -2.3 0 0 36.40 103.67
  C 36.36 105.61 36.78 106.97 35.97 108.85
  Q 34.00 113.45 31.70 117.90
  C 30.47 120.26 32.24 122.08 31.45 124.41
  C 29.67 129.64 23.02 131.75 17.40 134.01
  A 1.25 1.15 -1.0 0 0 16.74 134.64
  Q 15.58 137.30 15.85 140.33
  A 0.55 0.53 -1.7 0 0 16.39 140.82
  C 23.17 140.88 21.25 149.65 21.24 153.95
  A 1.41 1.32 -26.3 0 1 20.91 154.83
  L 19.36 156.66
  A 0.85 0.75 -39.4 0 0 19.22 157.52
  L 23.08 165.70
  Q 23.80 167.22 24.03 165.51
  C 25.23 156.92 32.39 150.91 40.96 151.34
  Q 43.22 151.46 50.25 154.15
  C 56.38 156.50 62.55 158.12 69.45 158.13
  Q 107.80 158.21 146.24 158.45
  A 1.19 1.08 -66.7 0 0 147.07 158.07
  C 156.75 147.48 173.69 150.50 176.56 165.19
  A 0.35 0.35 73.3 0 0 177.04 165.45
  C 188.57 160.77 188.38 148.37 184.40 138.45
  A 2.64 2.64 83.4 0 0 182.36 136.83"
/>
<path stroke="#8d968d" vector-effect="non-scaling-stroke" d="
  M 32.07 106.80
  Q 33.24 104.15 30.81 105.73
  C 26.45 108.58 23.03 118.52 19.65 127.70
  Q 19.44 128.27 19.96 128.03
  L 25.76 125.34
  Q 28.21 124.20 26.95 121.54
  C 25.68 118.86 30.81 109.64 32.07 106.80"
/>
<path stroke="#8d968d" vector-effect="non-scaling-stroke" d="
  M 179.7593 131.8575
  A 4.91 1.45 27.9 0 0 176.0985 128.2785
  A 4.91 1.45 27.9 0 0 171.0807 127.2625
  A 4.91 1.45 27.9 0 0 174.7415 130.8415
  A 4.91 1.45 27.9 0 0 179.7593 131.8575"
/>
<path stroke="#8d968d" vector-effect="non-scaling-stroke" d="
  M 17.0782 145.9089
  A 0.62 0.62 0.0 0 0 16.4636 145.2835
  L 13.4037 145.2568
  A 0.62 0.62 0.0 0 0 12.7784 145.8714
  L 12.7218 152.3511
  A 0.62 0.62 0.0 0 0 13.3364 152.9765
  L 16.3963 153.0032
  A 0.62 0.62 0.0 0 0 17.0216 152.3886
  L 17.0782 145.9089"
/>
<path stroke="#268ac8" vector-effect="non-scaling-stroke" d="
  M 52.43 167.94
  A 12.14 12.14 0.0 0 0 40.29 155.80
  A 12.14 12.14 0.0 0 0 28.15 167.94
  A 12.14 12.14 0.0 0 0 40.29 180.08
  A 12.14 12.14 0.0 0 0 52.43 167.94"
/>
<path stroke="#268ac8" vector-effect="non-scaling-stroke" d="
  M 172.54 168.32
  A 12.15 12.15 0.0 0 0 160.39 156.17
  A 12.15 12.15 0.0 0 0 148.24 168.32
  A 12.15 12.15 0.0 0 0 160.39 180.47
  A 12.15 12.15 0.0 0 0 172.54 168.32"
/>
<path stroke="#90a6cd" vector-effect="non-scaling-stroke" d="
  M 143.82 162.69
  Q 105.16 162.43 66.51 162.51
  C 62.72 162.52 59.35 161.40 55.74 160.46
  Q 55.03 160.28 55.25 160.99
  L 56.67 165.55
  A 0.69 0.68 81.3 0 0 57.32 166.04
  L 143.24 166.01
  A 0.98 0.83 13.6 0 0 144.03 165.61
  Q 144.76 164.43 144.46 163.18
  A 0.66 0.63 -6.0 0 0 143.82 162.69"
/>
<path stroke="#90a6cd" vector-effect="non-scaling-stroke" d="
  M 140.69 123.88
  Q 116.54 110.22 109.03 106.70
  Q 96.91 101.00 84.25 102.02
  Q 76.79 102.62 47.25 105.73
  Q 42.74 106.21 40.61 110.52
  A 1.18 1.18 -42.0 0 0 40.56 111.44
  C 42.11 115.81 46.01 122.80 51.25 123.27
  Q 95.21 127.17 139.16 131.03
  C 141.85 131.27 145.38 129.81 143.83 126.67
  Q 143.12 125.25 140.69 123.88"
/>
<path stroke="#2688c6" vector-effect="non-scaling-stroke" d="
  M 135.09 125.70
  Q 121.99 118.46 108.78 111.51
  Q 99.62 106.69 88.47 106.18
  A 0.80 0.77 -1.2 0 0 87.64 107.02
  L 88.96 121.75
  A 0.63 0.60 0.1 0 0 89.52 122.29
  Q 110.63 124.25 131.74 126.09
  Q 133.85 126.27 134.82 126.46
  Q 137.38 126.97 135.09 125.70"
/>
<path stroke="#2688c6" vector-effect="non-scaling-stroke" d="
  M 45.77 112.78
  C 47.51 117.98 51.32 118.84 56.19 119.32
  Q 70.04 120.68 83.95 121.75
  A 0.44 0.42 -0.5 0 0 84.42 121.29
  L 83.07 107.18
  A 0.72 0.70 -5.7 0 0 82.29 106.56
  L 47.55 110.01
  Q 44.93 110.28 45.77 112.78"
/>
<path stroke="#268ac8" vector-effect="non-scaling-stroke" d="
  M 48.51 167.74
  A 8.42 8.42 0.0 0 0 40.09 159.32
  A 8.42 8.42 0.0 0 0 31.67 167.74
  A 8.42 8.42 0.0 0 0 40.09 176.16
  A 8.42 8.42 0.0 0 0 48.51 167.74"
/>
<path stroke="#268ac8" vector-effect="non-scaling-stroke" d="
  M 168.50 168.13
  A 8.09 8.09 0.0 0 0 160.41 160.04
  A 8.09 8.09 0.0 0 0 152.32 168.13
  A 8.09 8.09 0.0 0 0 160.41 176.22
  A 8.09 8.09 0.0 0 0 168.50 168.13"
/>
<path stroke="#90a6cd" vector-effect="non-scaling-stroke" d="
  M 44.15 167.76
  A 4.04 4.04 0.0 0 0 40.11 163.72
  A 4.04 4.04 0.0 0 0 36.07 167.76
  A 4.04 4.04 0.0 0 0 40.11 171.80
  A 4.04 4.04 0.0 0 0 44.15 167.76"
/>
<path stroke="#90a6cd" vector-effect="non-scaling-stroke" d="
  M 164.07 168.14
  A 3.70 3.70 0.0 0 0 160.37 164.44
  A 3.70 3.70 0.0 0 0 156.67 168.14
  A 3.70 3.70 0.0 0 0 160.37 171.84
  A 3.70 3.70 0.0 0 0 164.07 168.14"
/>
</g>
<path fill="#ffffff" d="
  M 0.00 0.00
  L 208.00 0.00
  L 208.00 196.00
  L 0.00 196.00
  L 0.00 0.00
  Z
  M 15.64 125.05
  C 14.23 130.47 11.21 134.49 11.48 140.47
  A 0.83 0.79 -16.8 0 1 11.07 141.20
  C 9.41 142.17 8.52 143.06 8.51 145.18
  C 8.49 149.70 6.73 157.84 14.24 157.46
  A 0.67 0.63 -9.9 0 1 14.89 157.89
  C 15.98 161.23 18.93 170.15 23.63 170.76
  A 0.76 0.71 -2.6 0 1 24.25 171.29
  C 27.89 185.82 45.03 189.20 54.00 177.21
  C 82.40 196.34 120.73 199.13 151.00 181.96
  C 161.67 188.72 174.62 182.89 176.65 170.47
  A 0.89 0.89 -6.6 0 1 177.19 169.79
  Q 195.83 162.16 190.05 141.50
  Q 193.92 136.14 196.64 127.15
  Q 204.42 101.42 198.24 76.91
  L 203.79 72.01
  A 1.77 1.67 51.3 0 0 203.98 69.70
  Q 197.23 60.53 191.19 52.57
  Q 189.73 50.64 187.79 50.75
  Q 186.47 49.67 186.21 48.00
  L 198.22 38.95
  A 1.55 1.40 -36.7 0 0 198.62 36.92
  L 192.29 28.27
  A 1.92 1.76 -36.0 0 0 189.71 27.98
  L 177.50 36.79
  L 175.71 34.00
  Q 176.41 32.41 175.43 31.07
  Q 169.36 22.77 162.33 13.25
  Q 161.11 11.59 159.48 12.73
  L 154.00 16.54
  C 79.88 -25.12 -8.48 42.46 15.64 125.05
  Z"
/>
<path fill="#96d7f6" d="
  M 154.00 16.54
  L 139.16 27.63
  Q 137.31 29.01 138.66 30.84
  L 152.16 49.10
  A 1.61 1.56 54.0 0 0 154.35 49.48
  L 162.65 43.57
  A 0.82 0.68 -44.4 0 1 163.49 43.50
  Q 164.73 44.30 164.80 45.77
  A 1.02 0.93 -21.3 0 1 164.40 46.58
  L 148.17 58.53
  A 0.68 0.67 -45.4 0 1 147.37 58.54
  C 144.44 56.39 127.13 48.66 126.70 55.27
  A 1.53 1.22 33.7 0 0 126.99 56.18
  L 152.26 90.48
  Q 154.81 93.93 156.22 89.93
  Q 159.64 80.23 156.31 70.47
  A 0.69 0.67 63.0 0 1 156.55 69.70
  L 173.06 57.71
  A 0.75 0.68 -44.6 0 1 173.89 57.68
  Q 174.97 58.43 175.35 59.71
  A 0.78 0.66 -28.6 0 1 175.05 60.49
  L 167.30 66.41
  Q 165.68 67.64 166.92 69.28
  L 180.31 87.16
  Q 181.66 88.97 183.57 87.58
  L 198.24 76.91
  Q 204.42 101.42 196.64 127.15
  Q 193.92 136.14 190.05 141.50
  C 187.35 131.76 181.90 124.09 171.27 122.53
  C 153.72 119.96 135.49 111.03 119.15 102.68
  C 103.01 94.43 91.93 93.35 72.81 95.25
  Q 55.16 97.00 37.49 98.74
  C 23.28 100.14 20.48 114.51 15.64 125.05
  C -8.48 42.46 79.88 -25.12 154.00 16.54
  Z
  M 139.04 93.61
  Q 123.14 85.99 123.16 67.93
  C 123.16 65.92 121.99 64.88 120.05 65.67
  A 1.10 1.00 88.0 0 0 119.45 66.38
  Q 118.73 68.98 119.04 71.77
  Q 121.17 91.26 139.25 98.18
  A 1.08 0.98 38.3 0 0 140.14 98.12
  C 143.48 96.17 141.13 94.61 139.04 93.61
  Z
  M 140.63 86.61
  Q 130.55 82.17 130.59 71.01
  A 1.17 1.05 -71.1 0 0 130.23 70.17
  C 128.01 68.17 126.41 70.13 126.45 72.45
  Q 126.64 84.56 137.79 89.79
  Q 140.25 90.94 141.34 88.39
  A 1.37 1.37 -66.8 0 0 140.63 86.61
  Z"
/>
<path fill="#204c9a" d="
  M 175.71 34.00
  L 167.39 40.19
  A 0.66 0.60 -31.5 0 0 167.17 40.95
  Q 167.68 42.07 168.61 42.79
  A 0.68 0.65 -43.6 0 0 169.42 42.79
  L 177.50 36.79
  L 189.71 27.98
  A 1.92 1.76 -36.0 0 1 192.29 28.27
  L 198.62 36.92
  A 1.55 1.40 -36.7 0 1 198.22 38.95
  L 186.21 48.00
  L 177.95 54.02
  A 0.90 0.77 -24.3 0 0 177.58 54.81
  Q 177.79 56.30 179.20 56.83
  A 0.97 0.91 -52.7 0 0 180.09 56.68
  L 187.79 50.75
  Q 189.73 50.64 191.19 52.57
  Q 197.23 60.53 203.98 69.70
  A 1.77 1.67 51.3 0 1 203.79 72.01
  L 198.24 76.91
  L 183.57 87.58
  Q 181.66 88.97 180.31 87.16
  L 166.92 69.28
  Q 165.68 67.64 167.30 66.41
  L 175.05 60.49
  A 0.78 0.66 -28.6 0 0 175.35 59.71
  Q 174.97 58.43 173.89 57.68
  A 0.75 0.68 -44.6 0 0 173.06 57.71
  L 156.55 69.70
  A 0.69 0.67 63.0 0 0 156.31 70.47
  Q 159.64 80.23 156.22 89.93
  Q 154.81 93.93 152.26 90.48
  L 126.99 56.18
  A 1.53 1.22 33.7 0 1 126.70 55.27
  C 127.13 48.66 144.44 56.39 147.37 58.54
  A 0.68 0.67 -45.4 0 0 148.17 58.53
  L 164.40 46.58
  A 1.02 0.93 -21.3 0 0 164.80 45.77
  Q 164.73 44.30 163.49 43.50
  A 0.82 0.68 -44.4 0 0 162.65 43.57
  L 154.35 49.48
  A 1.61 1.56 54.0 0 1 152.16 49.10
  L 138.66 30.84
  Q 137.31 29.01 139.16 27.63
  L 154.00 16.54
  L 159.48 12.73
  Q 161.11 11.59 162.33 13.25
  Q 169.36 22.77 175.43 31.07
  Q 176.41 32.41 175.71 34.00
  Z
  M 160.3495 17.8237
  A 0.41 0.41 0.0 0 0 159.7765 17.7350
  L 153.7565 22.1409
  A 0.41 0.41 0.0 0 0 153.6678 22.7139
  L 157.2705 27.6363
  A 0.41 0.41 0.0 0 0 157.8435 27.7250
  L 163.8635 23.3191
  A 0.41 0.41 0.0 0 0 163.9522 22.7461
  L 160.3495 17.8237
  Z
  M 150.1846 25.4157
  A 0.56 0.56 0.0 0 0 149.4002 25.3069
  L 143.6735 29.6379
  A 0.56 0.56 0.0 0 0 143.5647 30.4223
  L 147.0754 35.0643
  A 0.56 0.56 0.0 0 0 147.8598 35.1731
  L 153.5865 30.8421
  A 0.56 0.56 0.0 0 0 153.6953 30.0577
  L 150.1846 25.4157
  Z
  M 167.0785 26.9644
  A 0.51 0.51 0.0 0 0 166.3658 26.8540
  L 160.5072 31.1418
  A 0.51 0.51 0.0 0 0 160.3969 31.8546
  L 163.8815 36.6156
  A 0.51 0.51 0.0 0 0 164.5942 36.7260
  L 170.4528 32.4382
  A 0.51 0.51 0.0 0 0 170.5631 31.7254
  L 167.0785 26.9644
  Z
  M 190.7148 33.0801
  A 0.40 0.40 0.0 0 0 190.1555 32.9955
  L 151.3757 61.5864
  A 0.40 0.40 0.0 0 0 151.2911 62.1457
  L 153.9852 65.7999
  A 0.40 0.40 0.0 0 0 154.5445 65.8845
  L 193.3243 37.2936
  A 0.40 0.40 0.0 0 0 193.4089 36.7343
  L 190.7148 33.0801
  Z
  M 156.8703 34.4826
  A 0.54 0.54 0.0 0 0 156.1146 34.3724
  L 150.3579 38.6633
  A 0.54 0.54 0.0 0 0 150.2476 39.4190
  L 153.7497 44.1174
  A 0.54 0.54 0.0 0 0 154.5054 44.2276
  L 160.2621 39.9367
  A 0.54 0.54 0.0 0 0 160.3724 39.1810
  L 156.8703 34.4826
  Z
  M 188.6982 56.4166
  A 0.57 0.57 0.0 0 0 187.9005 56.3003
  L 182.2239 60.5314
  A 0.57 0.57 0.0 0 0 182.1076 61.3291
  L 185.5618 65.9634
  A 0.57 0.57 0.0 0 0 186.3595 66.0797
  L 192.0361 61.8486
  A 0.57 0.57 0.0 0 0 192.1524 61.0509
  L 188.6982 56.4166
  Z
  M 153.49 83.28
  C 154.72 70.61 146.72 59.40 134.01 57.47
  Q 133.12 57.34 133.66 58.06
  L 152.45 83.56
  Q 153.35 84.78 153.49 83.28
  Z
  M 178.4993 63.8667
  A 0.48 0.48 0.0 0 0 177.8266 63.7757
  L 171.9878 68.2237
  A 0.48 0.48 0.0 0 0 171.8969 68.8964
  L 175.5207 73.6533
  A 0.48 0.48 0.0 0 0 176.1934 73.7443
  L 182.0322 69.2963
  A 0.48 0.48 0.0 0 0 182.1231 68.6236
  L 178.4993 63.8667
  Z
  M 195.3340 65.3058
  A 0.44 0.44 0.0 0 0 194.7181 65.2171
  L 188.7767 69.6618
  A 0.44 0.44 0.0 0 0 188.6879 70.2777
  L 192.3060 75.1142
  A 0.44 0.44 0.0 0 0 192.9219 75.2029
  L 198.8633 70.7582
  A 0.44 0.44 0.0 0 0 198.9521 70.1423
  L 195.3340 65.3058
  Z
  M 185.2763 72.9606
  A 0.52 0.52 0.0 0 0 184.5486 72.8544
  L 178.7758 77.1573
  A 0.52 0.52 0.0 0 0 178.6697 77.8850
  L 182.1837 82.5994
  A 0.52 0.52 0.0 0 0 182.9114 82.7056
  L 188.6842 78.4027
  A 0.52 0.52 0.0 0 0 188.7903 77.6750
  L 185.2763 72.9606
  Z"
/>
<rect fill="#fae080" x="-4.14" y="-3.46" transform="translate(158.81,22.73) rotate(-36.2)" width="8.28" height="6.92" rx="0.41"/>
<rect fill="#fae080" x="-4.15" y="-3.47" transform="translate(148.63,30.24) rotate(-37.1)" width="8.30" height="6.94" rx="0.56"/>
<rect fill="#fae080" x="-4.14" y="-3.46" transform="translate(165.48,31.79) rotate(-36.2)" width="8.28" height="6.92" rx="0.51"/>
<rect fill="#ffffff" x="-24.49" y="-2.67" transform="translate(172.35,49.44) rotate(-36.4)" width="48.98" height="5.34" rx="0.40"/>
<path fill="#96d7f6" d="
  M 175.71 34.00
  L 177.50 36.79
  L 169.42 42.79
  A 0.68 0.65 -43.6 0 1 168.61 42.79
  Q 167.68 42.07 167.17 40.95
  A 0.66 0.60 -31.5 0 1 167.39 40.19
  L 175.71 34.00
  Z"
/>
<rect fill="#fae080" x="-4.13" y="-3.47" transform="translate(155.31,39.30) rotate(-36.7)" width="8.26" height="6.94" rx="0.54"/>
<path fill="#96d7f6" d="
  M 186.21 48.00
  Q 186.47 49.67 187.79 50.75
  L 180.09 56.68
  A 0.97 0.91 -52.7 0 1 179.20 56.83
  Q 177.79 56.30 177.58 54.81
  A 0.90 0.77 -24.3 0 1 177.95 54.02
  L 186.21 48.00
  Z"
/>
<rect fill="#fae080" x="-4.11" y="-3.46" transform="translate(187.13,61.19) rotate(-36.7)" width="8.22" height="6.92" rx="0.57"/>
<path fill="#2bc3f2" d="
  M 134.01 57.47
  C 146.72 59.40 154.72 70.61 153.49 83.28
  Q 153.35 84.78 152.45 83.56
  L 133.66 58.06
  Q 133.12 57.34 134.01 57.47
  Z"
/>
<rect fill="#fae080" x="-4.15" y="-3.47" transform="translate(177.01,68.76) rotate(-37.3)" width="8.30" height="6.94" rx="0.48"/>
<rect fill="#fae080" x="-4.15" y="-3.46" transform="translate(193.82,70.21) rotate(-36.8)" width="8.30" height="6.92" rx="0.44"/>
<path fill="#204c9a" d="
  M 139.04 93.61
  C 141.13 94.61 143.48 96.17 140.14 98.12
  A 1.08 0.98 38.3 0 1 139.25 98.18
  Q 121.17 91.26 119.04 71.77
  Q 118.73 68.98 119.45 66.38
  A 1.10 1.00 88.0 0 1 120.05 65.67
  C 121.99 64.88 123.16 65.92 123.16 67.93
  Q 123.14 85.99 139.04 93.61
  Z"
/>
<path fill="#204c9a" d="
  M 140.63 86.61
  A 1.37 1.37 -66.8 0 1 141.34 88.39
  Q 140.25 90.94 137.79 89.79
  Q 126.64 84.56 126.45 72.45
  C 126.41 70.13 128.01 68.17 130.23 70.17
  A 1.17 1.05 -71.1 0 1 130.59 71.01
  Q 130.55 82.17 140.63 86.61
  Z"
/>
<rect fill="#fae080" x="-4.12" y="-3.46" transform="translate(183.73,77.78) rotate(-36.7)" width="8.24" height="6.92" rx="0.52"/>
<path fill="#204c9a" d="
  M 190.05 141.50
  Q 195.83 162.16 177.19 169.79
  A 0.89 0.89 -6.6 0 0 176.65 170.47
  C 174.62 182.89 161.67 188.72 151.00 181.96
  Q 145.40 177.76 144.26 171.35
  A 1.33 1.33 -5.2 0 0 142.95 170.26
  L 57.30 170.26
  A 0.78 0.67 -77.0 0 0 56.65 170.74
  L 54.00 177.21
  C 45.03 189.20 27.89 185.82 24.25 171.29
  A 0.76 0.71 -2.6 0 0 23.63 170.76
  C 18.93 170.15 15.98 161.23 14.89 157.89
  A 0.67 0.63 -9.9 0 0 14.24 157.46
  C 6.73 157.84 8.49 149.70 8.51 145.18
  C 8.52 143.06 9.41 142.17 11.07 141.20
  A 0.83 0.79 -16.8 0 0 11.48 140.47
  C 11.21 134.49 14.23 130.47 15.64 125.05
  C 20.48 114.51 23.28 100.14 37.49 98.74
  Q 55.16 97.00 72.81 95.25
  C 91.93 93.35 103.01 94.43 119.15 102.68
  C 135.49 111.03 153.72 119.96 171.27 122.53
  C 181.90 124.09 187.35 131.76 190.05 141.50
  Z
  M 182.36 136.83
  C 174.49 135.57 168.57 135.47 166.08 126.58
  A 0.90 0.89 89.4 0 0 165.45 125.96
  Q 147.72 121.32 131.24 113.27
  C 115.11 105.40 100.68 96.69 82.75 98.52
  Q 59.86 100.85 36.92 103.12
  A 0.58 0.56 -2.3 0 0 36.40 103.67
  C 36.36 105.61 36.78 106.97 35.97 108.85
  Q 34.00 113.45 31.70 117.90
  C 30.47 120.26 32.24 122.08 31.45 124.41
  C 29.67 129.64 23.02 131.75 17.40 134.01
  A 1.25 1.15 -1.0 0 0 16.74 134.64
  Q 15.58 137.30 15.85 140.33
  A 0.55 0.53 -1.7 0 0 16.39 140.82
  C 23.17 140.88 21.25 149.65 21.24 153.95
  A 1.41 1.32 -26.3 0 1 20.91 154.83
  L 19.36 156.66
  A 0.85 0.75 -39.4 0 0 19.22 157.52
  L 23.08 165.70
  Q 23.80 167.22 24.03 165.51
  C 25.23 156.92 32.39 150.91 40.96 151.34
  Q 43.22 151.46 50.25 154.15
  C 56.38 156.50 62.55 158.12 69.45 158.13
  Q 107.80 158.21 146.24 158.45
  A 1.19 1.08 -66.7 0 0 147.07 158.07
  C 156.75 147.48 173.69 150.50 176.56 165.19
  A 0.35 0.35 73.3 0 0 177.04 165.45
  C 188.57 160.77 188.38 148.37 184.40 138.45
  A 2.64 2.64 83.4 0 0 182.36 136.83
  Z
  M 32.07 106.80
  Q 33.24 104.15 30.81 105.73
  C 26.45 108.58 23.03 118.52 19.65 127.70
  Q 19.44 128.27 19.96 128.03
  L 25.76 125.34
  Q 28.21 124.20 26.95 121.54
  C 25.68 118.86 30.81 109.64 32.07 106.80
  Z
  M 179.7593 131.8575
  A 4.91 1.45 27.9 0 0 176.0985 128.2785
  A 4.91 1.45 27.9 0 0 171.0807 127.2625
  A 4.91 1.45 27.9 0 0 174.7415 130.8415
  A 4.91 1.45 27.9 0 0 179.7593 131.8575
  Z
  M 17.0782 145.9089
  A 0.62 0.62 0.0 0 0 16.4636 145.2835
  L 13.4037 145.2568
  A 0.62 0.62 0.0 0 0 12.7784 145.8714
  L 12.7218 152.3511
  A 0.62 0.62 0.0 0 0 13.3364 152.9765
  L 16.3963 153.0032
  A 0.62 0.62 0.0 0 0 17.0216 152.3886
  L 17.0782 145.9089
  Z
  M 52.43 167.94
  A 12.14 12.14 0.0 0 0 40.29 155.80
  A 12.14 12.14 0.0 0 0 28.15 167.94
  A 12.14 12.14 0.0 0 0 40.29 180.08
  A 12.14 12.14 0.0 0 0 52.43 167.94
  Z
  M 172.54 168.32
  A 12.15 12.15 0.0 0 0 160.39 156.17
  A 12.15 12.15 0.0 0 0 148.24 168.32
  A 12.15 12.15 0.0 0 0 160.39 180.47
  A 12.15 12.15 0.0 0 0 172.54 168.32
  Z
  M 143.82 162.69
  Q 105.16 162.43 66.51 162.51
  C 62.72 162.52 59.35 161.40 55.74 160.46
  Q 55.03 160.28 55.25 160.99
  L 56.67 165.55
  A 0.69 0.68 81.3 0 0 57.32 166.04
  L 143.24 166.01
  A 0.98 0.83 13.6 0 0 144.03 165.61
  Q 144.76 164.43 144.46 163.18
  A 0.66 0.63 -6.0 0 0 143.82 162.69
  Z"
/>
<path fill="#ffffff" d="
  M 182.36 136.83
  A 2.64 2.64 83.4 0 1 184.40 138.45
  C 188.38 148.37 188.57 160.77 177.04 165.45
  A 0.35 0.35 73.3 0 1 176.56 165.19
  C 173.69 150.50 156.75 147.48 147.07 158.07
  A 1.19 1.08 -66.7 0 1 146.24 158.45
  Q 107.80 158.21 69.45 158.13
  C 62.55 158.12 56.38 156.50 50.25 154.15
  Q 43.22 151.46 40.96 151.34
  C 32.39 150.91 25.23 156.92 24.03 165.51
  Q 23.80 167.22 23.08 165.70
  L 19.22 157.52
  A 0.85 0.75 -39.4 0 1 19.36 156.66
  L 20.91 154.83
  A 1.41 1.32 -26.3 0 0 21.24 153.95
  C 21.25 149.65 23.17 140.88 16.39 140.82
  A 0.55 0.53 -1.7 0 1 15.85 140.33
  Q 15.58 137.30 16.74 134.64
  A 1.25 1.15 -1.0 0 1 17.40 134.01
  C 23.02 131.75 29.67 129.64 31.45 124.41
  C 32.24 122.08 30.47 120.26 31.70 117.90
  Q 34.00 113.45 35.97 108.85
  C 36.78 106.97 36.36 105.61 36.40 103.67
  A 0.58 0.56 -2.3 0 1 36.92 103.12
  Q 59.86 100.85 82.75 98.52
  C 100.68 96.69 115.11 105.40 131.24 113.27
  Q 147.72 121.32 165.45 125.96
  A 0.90 0.89 89.4 0 1 166.08 126.58
  C 168.57 135.47 174.49 135.57 182.36 136.83
  Z
  M 140.69 123.88
  Q 116.54 110.22 109.03 106.70
  Q 96.91 101.00 84.25 102.02
  Q 76.79 102.62 47.25 105.73
  Q 42.74 106.21 40.61 110.52
  A 1.18 1.18 -42.0 0 0 40.56 111.44
  C 42.11 115.81 46.01 122.80 51.25 123.27
  Q 95.21 127.17 139.16 131.03
  C 141.85 131.27 145.38 129.81 143.83 126.67
  Q 143.12 125.25 140.69 123.88
  Z"
/>
<path fill="#204c9a" d="
  M 143.83 126.67
  C 145.38 129.81 141.85 131.27 139.16 131.03
  Q 95.21 127.17 51.25 123.27
  C 46.01 122.80 42.11 115.81 40.56 111.44
  A 1.18 1.18 -42.0 0 1 40.61 110.52
  Q 42.74 106.21 47.25 105.73
  Q 76.79 102.62 84.25 102.02
  Q 96.91 101.00 109.03 106.70
  Q 116.54 110.22 140.69 123.88
  Q 143.12 125.25 143.83 126.67
  Z
  M 135.09 125.70
  Q 121.99 118.46 108.78 111.51
  Q 99.62 106.69 88.47 106.18
  A 0.80 0.77 -1.2 0 0 87.64 107.02
  L 88.96 121.75
  A 0.63 0.60 0.1 0 0 89.52 122.29
  Q 110.63 124.25 131.74 126.09
  Q 133.85 126.27 134.82 126.46
  Q 137.38 126.97 135.09 125.70
  Z
  M 45.77 112.78
  C 47.51 117.98 51.32 118.84 56.19 119.32
  Q 70.04 120.68 83.95 121.75
  A 0.44 0.42 -0.5 0 0 84.42 121.29
  L 83.07 107.18
  A 0.72 0.70 -5.7 0 0 82.29 106.56
  L 47.55 110.01
  Q 44.93 110.28 45.77 112.78
  Z"
/>
<path fill="#fae080" d="
  M 32.07 106.80
  C 30.81 109.64 25.68 118.86 26.95 121.54
  Q 28.21 124.20 25.76 125.34
  L 19.96 128.03
  Q 19.44 128.27 19.65 127.70
  C 23.03 118.52 26.45 108.58 30.81 105.73
  Q 33.24 104.15 32.07 106.80
  Z"
/>
<path fill="#2bc3f2" d="
  M 135.09 125.70
  Q 137.38 126.97 134.82 126.46
  Q 133.85 126.27 131.74 126.09
  Q 110.63 124.25 89.52 122.29
  A 0.63 0.60 0.1 0 1 88.96 121.75
  L 87.64 107.02
  A 0.80 0.77 -1.2 0 1 88.47 106.18
  Q 99.62 106.69 108.78 111.51
  Q 121.99 118.46 135.09 125.70
  Z"
/>
<path fill="#2bc3f2" d="
  M 56.19 119.32
  C 51.32 118.84 47.51 117.98 45.77 112.78
  Q 44.93 110.28 47.55 110.01
  L 82.29 106.56
  A 0.72 0.70 -5.7 0 1 83.07 107.18
  L 84.42 121.29
  A 0.44 0.42 -0.5 0 1 83.95 121.75
  Q 70.04 120.68 56.19 119.32
  Z"
/>
<ellipse fill="#fae080" cx="0.00" cy="0.00" transform="translate(175.42,129.56) rotate(27.9)" rx="4.91" ry="1.45"/>
<rect fill="#fae080" x="-2.15" y="-3.86" transform="translate(14.90,149.13) rotate(0.5)" width="4.30" height="7.72" rx="0.62"/>
<path fill="#2cc7f5" d="
  M 52.43 167.94
  A 12.14 12.14 0.0 0 1 40.29 180.08
  A 12.14 12.14 0.0 0 1 28.15 167.94
  A 12.14 12.14 0.0 0 1 40.29 155.80
  A 12.14 12.14 0.0 0 1 52.43 167.94
  Z
  M 48.51 167.74
  A 8.42 8.42 0.0 0 0 40.09 159.32
  A 8.42 8.42 0.0 0 0 31.67 167.74
  A 8.42 8.42 0.0 0 0 40.09 176.16
  A 8.42 8.42 0.0 0 0 48.51 167.74
  Z"
/>
<path fill="#2cc7f5" d="
  M 172.54 168.32
  A 12.15 12.15 0.0 0 1 160.39 180.47
  A 12.15 12.15 0.0 0 1 148.24 168.32
  A 12.15 12.15 0.0 0 1 160.39 156.17
  A 12.15 12.15 0.0 0 1 172.54 168.32
  Z
  M 168.50 168.13
  A 8.09 8.09 0.0 0 0 160.41 160.04
  A 8.09 8.09 0.0 0 0 152.32 168.13
  A 8.09 8.09 0.0 0 0 160.41 176.22
  A 8.09 8.09 0.0 0 0 168.50 168.13
  Z"
/>
<path fill="#204c9a" d="
  M 48.51 167.74
  A 8.42 8.42 0.0 0 1 40.09 176.16
  A 8.42 8.42 0.0 0 1 31.67 167.74
  A 8.42 8.42 0.0 0 1 40.09 159.32
  A 8.42 8.42 0.0 0 1 48.51 167.74
  Z
  M 44.15 167.76
  A 4.04 4.04 0.0 0 0 40.11 163.72
  A 4.04 4.04 0.0 0 0 36.07 167.76
  A 4.04 4.04 0.0 0 0 40.11 171.80
  A 4.04 4.04 0.0 0 0 44.15 167.76
  Z"
/>
<path fill="#204c9a" d="
  M 168.50 168.13
  A 8.09 8.09 0.0 0 1 160.41 176.22
  A 8.09 8.09 0.0 0 1 152.32 168.13
  A 8.09 8.09 0.0 0 1 160.41 160.04
  A 8.09 8.09 0.0 0 1 168.50 168.13
  Z
  M 164.07 168.14
  A 3.70 3.70 0.0 0 0 160.37 164.44
  A 3.70 3.70 0.0 0 0 156.67 168.14
  A 3.70 3.70 0.0 0 0 160.37 171.84
  A 3.70 3.70 0.0 0 0 164.07 168.14
  Z"
/>
<path fill="#ffffff" d="
  M 144.46 163.18
  Q 144.76 164.43 144.03 165.61
  A 0.98 0.83 13.6 0 1 143.24 166.01
  L 57.32 166.04
  A 0.69 0.68 81.3 0 1 56.67 165.55
  L 55.25 160.99
  Q 55.03 160.28 55.74 160.46
  C 59.35 161.40 62.72 162.52 66.51 162.51
  Q 105.16 162.43 143.82 162.69
  A 0.66 0.63 -6.0 0 1 144.46 163.18
  Z"
/>
<circle fill="#ffffff" cx="40.11" cy="167.76" r="4.04"/>
<circle fill="#ffffff" cx="160.37" cy="168.14" r="3.70"/>
<path fill="#96d7f6" d="
  M 151.00 181.96
  C 120.73 199.13 82.40 196.34 54.00 177.21
  L 56.65 170.74
  A 0.78 0.67 -77.0 0 1 57.30 170.26
  L 142.95 170.26
  A 1.33 1.33 -5.2 0 1 144.26 171.35
  Q 145.40 177.76 151.00 181.96
  Z"
/>
</svg>
