<?xml version="1.0" encoding="UTF-8" standalone="no"?>
<!DOCTYPE svg PUBLIC "-//W3C//DTD SVG 1.1//EN" "http://www.w3.org/Graphics/SVG/1.1/DTD/svg11.dtd">
<svg xmlns="http://www.w3.org/2000/svg" version="1.1" viewBox="0 0 274 318">
<g stroke-width="2.00" fill="none" stroke-linecap="butt">
<path stroke="#5c92c9" vector-effect="non-scaling-stroke" d="
  M 198.07 41.55
  Q 184.43 41.86 170.91 41.78
  C 157.64 41.70 150.66 48.46 150.34 61.73
  Q 149.50 97.45 149.21 133.21
  Q 149.20 133.81 148.74 133.52
  L 146.08 131.83
  A 1.49 0.37 37.3 0 0 145.22 131.46
  Q 142.11 131.38 141.92 134.57
  A 1.47 1.36 30.7 0 0 142.19 135.48
  Q 144.61 138.77 147.75 140.15
  A 1.71 1.70 -78.0 0 1 148.77 141.73
  C 148.76 150.31 147.27 163.04 149.98 170.71
  C 157.26 191.39 178.62 187.52 195.75 187.45
  C 207.62 187.41 217.57 182.71 220.96 171.18
  C 223.14 163.77 221.64 151.62 221.51 142.79
  A 0.81 0.78 -13.3 0 1 221.97 142.08
  C 224.06 141.10 228.88 138.15 228.63 135.41
  C 228.24 131.30 223.93 132.79 222.31 135.07
  Q 221.32 136.46 221.28 134.76
  L 219.75 58.78"
/>
<path stroke="#5c92c9" vector-effect="non-scaling-stroke" d="
  M 240.00 84.04
  L 240.22 84.45
  Q 240.50 84.97 240.50 85.26
  Q 240.50 150.75 240.50 216.25
  Q 240.50 216.57 240.04 217.75"
/>
<path stroke="#5c92c9" vector-effect="non-scaling-stroke" d="
  M 44.63 248.70
  Q 43.87 231.14 44.47 213.53
  A 0.55 0.48 -1.4 0 1 44.99 213.06
  L 51.96 212.59
  A 1.33 0.90 -65.2 0 0 52.77 212.10
  L 70.80 189.47
  A 2.85 2.83 58.0 0 0 71.34 187.08
  L 64.83 158.76
  A 2.12 2.11 6.3 0 0 63.68 157.33
  L 39.81 145.80
  A 0.80 0.80 -78.2 0 1 39.35 145.09
  Q 38.89 101.41 39.50 57.79"
/>
<path stroke="#5c92c9" vector-effect="non-scaling-stroke" d="
  M 130.6069 30.2414
  A 2.86 2.86 0.0 0 0 127.7770 27.3516
  L 127.6170 27.3499
  A 2.86 2.86 0.0 0 0 124.7272 30.1798
  L 124.4931 52.5386
  A 2.86 2.86 0.0 0 0 127.3230 55.4284
  L 127.4830 55.4301
  A 2.86 2.86 0.0 0 0 130.3728 52.6002
  L 130.6069 30.2414"
/>
<path stroke="#5c92c9" vector-effect="non-scaling-stroke" d="
  M 130.2572 75.1064
  A 2.78 2.78 0.0 0 0 127.5114 72.2926
  L 127.2514 72.2895
  A 2.78 2.78 0.0 0 0 124.4377 75.0353
  L 124.1628 97.5336
  A 2.78 2.78 0.0 0 0 126.9086 100.3474
  L 127.1686 100.3505
  A 2.78 2.78 0.0 0 0 129.9823 97.6047
  L 130.2572 75.1064"
/>
<path stroke="#5c92c9" vector-effect="non-scaling-stroke" d="
  M 129.8491 119.9766
  A 2.84 2.84 0.0 0 0 127.0440 117.1021
  L 126.8440 117.0997
  A 2.84 2.84 0.0 0 0 123.9696 119.9047
  L 123.7509 137.8034
  A 2.84 2.84 0.0 0 0 126.5560 140.6779
  L 126.7560 140.6803
  A 2.84 2.84 0.0 0 0 129.6304 137.8753
  L 129.8491 119.9766"
/>
<path stroke="#5c92c9" vector-effect="non-scaling-stroke" d="
  M 119.10 201.28
  C 100.75 184.82 99.01 162.53 114.49 143.25
  C 116.15 141.19 116.49 138.32 113.44 137.57
  A 2.42 2.41 -62.8 0 0 111.02 138.35
  C 92.67 160.09 93.61 188.85 116.77 206.72
  Q 118.74 208.23 120.28 206.29
  C 122.31 203.73 120.85 202.85 119.10 201.28"
/>
<path stroke="#5c92c9" vector-effect="non-scaling-stroke" d="
  M 122.92 145.11
  Q 120.94 144.05 119.48 145.76
  C 105.09 162.57 106.52 185.55 124.62 199.01
  A 1.45 1.24 57.9 0 0 125.51 199.29
  Q 128.66 199.06 128.55 195.73
  A 1.37 1.19 24.6 0 0 128.17 194.89
  C 125.20 191.87 121.84 188.72 119.75 185.27
  C 112.44 173.17 115.18 161.02 123.53 149.90
  C 124.91 148.06 125.13 146.30 122.92 145.11"
/>
<path stroke="#5c92c9" vector-effect="non-scaling-stroke" d="
  M 130.62 151.60
  Q 128.68 150.70 127.34 152.37
  Q 111.83 171.63 128.46 188.48
  C 130.78 190.84 134.38 192.84 135.34 187.68
  A 1.00 0.96 28.8 0 0 135.07 186.82
  C 124.36 175.75 122.48 169.65 131.75 156.01
  C 133.06 154.09 132.68 152.55 130.62 151.60"
/>
<path stroke="#5c92c9" vector-effect="non-scaling-stroke" d="
  M 129.1471 213.6913
  A 2.84 2.84 0.0 0 0 126.3370 210.8217
  L 126.1570 210.8198
  A 2.84 2.84 0.0 0 0 123.2874 213.6299
  L 123.0529 236.0287
  A 2.84 2.84 0.0 0 0 125.8630 238.8983
  L 126.0430 238.9002
  A 2.84 2.84 0.0 0 0 128.9126 236.0901
  L 129.1471 213.6913"
/>
<path stroke="#5c92c9" vector-effect="non-scaling-stroke" d="
  M 128.7472 258.6366
  A 2.82 2.82 0.0 0 0 125.9619 255.7823
  L 125.6819 255.7789
  A 2.82 2.82 0.0 0 0 122.8277 258.5642
  L 122.6928 269.6034
  A 2.82 2.82 0.0 0 0 125.4781 272.4577
  L 125.7581 272.4611
  A 2.82 2.82 0.0 0 0 128.6123 269.6758
  L 128.7472 258.6366"
/>
<path stroke="#5c92c9" vector-effect="non-scaling-stroke" d="
  M 29.65 233.02
  L 29.75 213.56
  A 0.51 0.50 -89.4 0 0 29.25 213.04
  L 21.99 213.01
  A 2.77 2.74 70.0 0 1 19.87 212.01
  L 9.83 199.97"
/>
<path stroke="#5c92c9" vector-effect="non-scaling-stroke" d="
  M 3.05 178.56
  L 7.89 158.40
  A 1.36 1.35 83.9 0 1 8.62 157.49
  L 32.90 145.75
  A 0.81 0.78 -13.3 0 0 33.36 145.04
  L 33.25 64.46"
/>
<path stroke="#8d968e" vector-effect="non-scaling-stroke" d="
  M 59.00 161.65
  L 36.71 150.91
  A 1.06 1.03 44.3 0 0 35.80 150.91
  L 13.54 161.66
  A 1.05 1.03 -7.0 0 0 12.98 162.36
  L 7.49 186.54
  A 1.04 1.02 32.5 0 0 7.69 187.41
  L 23.03 206.78
  A 1.14 0.96 68.6 0 0 23.83 207.21
  L 28.33 207.24
  A 1.59 1.43 -85.7 0 0 29.78 205.85
  Q 30.35 201.50 32.69 201.34
  Q 37.40 201.02 42.26 201.45
  A 1.43 1.23 -15.7 0 1 43.12 201.85
  Q 44.95 203.74 44.51 206.61
  A 0.47 0.42 -84.8 0 0 44.91 207.16
  L 48.64 207.19
  A 1.16 0.88 -65.2 0 0 49.46 206.75
  L 64.97 187.39
  A 1.07 1.05 57.9 0 0 65.16 186.51
  L 59.67 162.49
  A 1.27 1.26 -84.0 0 0 59.00 161.65"
/>
<path stroke="#91a6cd" vector-effect="non-scaling-stroke" d="
  M 38.51 207.83
  A 0.51 0.51 0.0 0 0 38.00 207.32
  L 36.18 207.32
  A 0.51 0.51 0.0 0 0 35.67 207.83
  L 35.67 269.15
  A 0.51 0.51 0.0 0 0 36.18 269.66
  L 38.00 269.66
  A 0.51 0.51 0.0 0 0 38.51 269.15
  L 38.51 207.83"
/>
<path stroke="#5c92c9" vector-effect="non-scaling-stroke" d="
  M 246.73 97.25
  Q 246.67 97.15 246.42 97.31
  A 0.59 0.49 74.2 0 0 246.20 97.81
  Q 246.39 101.41 246.29 112.56
  Q 246.18 125.19 246.26 195.23
  C 246.26 197.60 246.63 201.22 246.13 204.33
  Q 246.03 204.94 246.55 204.76"
/>
<path stroke="#2788c7" vector-effect="non-scaling-stroke" d="
  M 213.63 59.51
  C 213.45 52.96 208.56 47.67 201.93 47.55
  Q 196.84 47.46 171.69 47.49
  C 160.24 47.50 156.34 51.91 156.13 63.44
  Q 155.21 113.56 154.50 163.71
  A 0.68 0.67 10.1 0 0 154.96 164.36
  C 166.06 168.16 168.23 169.33 170.85 181.06
  A 0.63 0.62 -6.4 0 0 171.46 181.54
  L 200.44 181.50
  A 1.74 1.74 1.6 0 0 202.17 179.87
  Q 202.95 166.99 215.63 164.20
  A 0.61 0.60 -7.1 0 0 216.10 163.60
  Q 215.01 111.50 213.63 59.51"
/>
<path stroke="#91a6cd" vector-effect="non-scaling-stroke" d="
  M 208.3546 178.1240
  A 4.79 1.23 130.1 0 0 212.3809 175.2523
  A 4.79 1.23 130.1 0 0 214.5254 170.7960
  A 4.79 1.23 130.1 0 0 210.4991 173.6677
  A 4.79 1.23 130.1 0 0 208.3546 178.1240"
/>
<path stroke="#91a6cd" vector-effect="non-scaling-stroke" d="
  M 164.50 178.77
  C 163.85 175.00 160.57 171.96 156.98 171.16
  Q 156.46 171.05 156.71 171.53
  Q 159.07 176.10 163.95 179.14
  Q 164.63 179.56 164.50 178.77"
/>
<path stroke="#2788c7" vector-effect="non-scaling-stroke" d="
  M 208.80 70.43
  Q 207.32 69.53 205.58 69.52
  Q 186.55 69.47 167.00 69.51
  C 161.92 69.52 158.50 70.92 158.70 76.51
  C 158.85 80.50 159.71 86.32 159.73 91.27
  C 159.77 105.39 160.28 119.75 159.20 133.83
  Q 158.71 140.32 158.46 146.49
  Q 158.34 149.23 161.05 149.74
  Q 185.55 154.34 210.04 149.64
  Q 212.11 149.24 212.00 147.13
  C 211.43 136.64 210.38 126.04 210.66 115.19
  C 210.88 106.78 210.18 94.83 211.05 83.59
  C 211.38 79.36 213.30 73.18 208.80 70.43"
/>
<path stroke="#91a6cd" vector-effect="non-scaling-stroke" d="
  M 205.08 83.78
  C 205.62 81.75 205.74 78.29 205.81 76.05
  A 0.48 0.48 -88.9 0 0 205.33 75.55
  L 165.05 75.52
  A 0.48 0.45 -3.2 0 0 164.57 76.02
  L 165.55 83.82
  A 0.61 0.55 -3.2 0 0 166.15 84.30
  L 204.45 84.26
  A 0.65 0.65 7.5 0 0 205.08 83.78"
/>
<path stroke="#8d968e" vector-effect="non-scaling-stroke" d="
  M 204.7241 90.7158
  A 0.56 0.56 0.0 0 0 204.1631 90.1568
  L 166.1032 90.2232
  A 0.56 0.56 0.0 0 0 165.5442 90.7842
  L 165.5959 120.4242
  A 0.56 0.56 0.0 0 0 166.1569 120.9832
  L 204.2168 120.9168
  A 0.56 0.56 0.0 0 0 204.7758 120.3558
  L 204.7241 90.7158"
/>
<path stroke="#91a6cd" vector-effect="non-scaling-stroke" d="
  M 204.03 127.44
  Q 187.23 127.44 171.33 127.51
  C 169.89 127.52 167.87 126.95 166.04 127.40
  A 0.69 0.68 84.9 0 0 165.52 128.03
  L 164.55 143.94
  A 0.56 0.55 6.3 0 0 165.02 144.52
  Q 185.39 147.84 205.74 144.49
  A 0.53 0.53 83.4 0 0 206.18 143.93
  L 205.12 128.48
  A 1.11 1.09 88.0 0 0 204.03 127.44"
/>
</g>
<path fill="#96d7f6" d="
  M 198.07 41.55
  Q 184.43 41.86 170.91 41.78
  C 157.64 41.70 150.66 48.46 150.34 61.73
  Q 149.50 97.45 149.21 133.21
  Q 149.20 133.81 148.74 133.52
  L 146.08 131.83
  A 1.49 0.37 37.3 0 0 145.22 131.46
  Q 142.11 131.38 141.92 134.57
  A 1.47 1.36 30.7 0 0 142.19 135.48
  Q 144.61 138.77 147.75 140.15
  A 1.71 1.70 -78.0 0 1 148.77 141.73
  C 148.76 150.31 147.27 163.04 149.98 170.71
  C 157.26 191.39 178.62 187.52 195.75 187.45
  C 207.62 187.41 217.57 182.71 220.96 171.18
  C 223.14 163.77 221.64 151.62 221.51 142.79
  A 0.81 0.78 -13.3 0 1 221.97 142.08
  C 224.06 141.10 228.88 138.15 228.63 135.41
  C 228.24 131.30 223.93 132.79 222.31 135.07
  Q 221.32 136.46 221.28 134.76
  L 219.75 58.78
  Q 231.64 70.17 240.00 84.04
  L 240.22 84.45
  Q 240.50 84.97 240.50 85.26
  Q 240.50 150.75 240.50 216.25
  Q 240.50 216.57 240.04 217.75
  C 197.32 286.40 106.35 300.89 44.63 248.70
  Q 43.87 231.14 44.47 213.53
  A 0.55 0.48 -1.4 0 1 44.99 213.06
  L 51.96 212.59
  A 1.33 0.90 -65.2 0 0 52.77 212.10
  L 70.80 189.47
  A 2.85 2.83 58.0 0 0 71.34 187.08
  L 64.83 158.76
  A 2.12 2.11 6.3 0 0 63.68 157.33
  L 39.81 145.80
  A 0.80 0.80 -78.2 0 1 39.35 145.09
  Q 38.89 101.41 39.50 57.79
  C 83.00 16.64 147.13 9.89 198.07 41.55
  Z
  M 130.6069 30.2414
  A 2.86 2.86 0.0 0 0 127.7770 27.3516
  L 127.6170 27.3499
  A 2.86 2.86 0.0 0 0 124.7272 30.1798
  L 124.4931 52.5386
  A 2.86 2.86 0.0 0 0 127.3230 55.4284
  L 127.4830 55.4301
  A 2.86 2.86 0.0 0 0 130.3728 52.6002
  L 130.6069 30.2414
  Z
  M 130.2572 75.1064
  A 2.78 2.78 0.0 0 0 127.5114 72.2926
  L 127.2514 72.2895
  A 2.78 2.78 0.0 0 0 124.4377 75.0353
  L 124.1628 97.5336
  A 2.78 2.78 0.0 0 0 126.9086 100.3474
  L 127.1686 100.3505
  A 2.78 2.78 0.0 0 0 129.9823 97.6047
  L 130.2572 75.1064
  Z
  M 129.8491 119.9766
  A 2.84 2.84 0.0 0 0 127.0440 117.1021
  L 126.8440 117.0997
  A 2.84 2.84 0.0 0 0 123.9696 119.9047
  L 123.7509 137.8034
  A 2.84 2.84 0.0 0 0 126.5560 140.6779
  L 126.7560 140.6803
  A 2.84 2.84 0.0 0 0 129.6304 137.8753
  L 129.8491 119.9766
  Z
  M 119.10 201.28
  C 100.75 184.82 99.01 162.53 114.49 143.25
  C 116.15 141.19 116.49 138.32 113.44 137.57
  A 2.42 2.41 -62.8 0 0 111.02 138.35
  C 92.67 160.09 93.61 188.85 116.77 206.72
  Q 118.74 208.23 120.28 206.29
  C 122.31 203.73 120.85 202.85 119.10 201.28
  Z
  M 122.92 145.11
  Q 120.94 144.05 119.48 145.76
  C 105.09 162.57 106.52 185.55 124.62 199.01
  A 1.45 1.24 57.9 0 0 125.51 199.29
  Q 128.66 199.06 128.55 195.73
  A 1.37 1.19 24.6 0 0 128.17 194.89
  C 125.20 191.87 121.84 188.72 119.75 185.27
  C 112.44 173.17 115.18 161.02 123.53 149.90
  C 124.91 148.06 125.13 146.30 122.92 145.11
  Z
  M 130.62 151.60
  Q 128.68 150.70 127.34 152.37
  Q 111.83 171.63 128.46 188.48
  C 130.78 190.84 134.38 192.84 135.34 187.68
  A 1.00 0.96 28.8 0 0 135.07 186.82
  C 124.36 175.75 122.48 169.65 131.75 156.01
  C 133.06 154.09 132.68 152.55 130.62 151.60
  Z
  M 129.1471 213.6913
  A 2.84 2.84 0.0 0 0 126.3370 210.8217
  L 126.1570 210.8198
  A 2.84 2.84 0.0 0 0 123.2874 213.6299
  L 123.0529 236.0287
  A 2.84 2.84 0.0 0 0 125.8630 238.8983
  L 126.0430 238.9002
  A 2.84 2.84 0.0 0 0 128.9126 236.0901
  L 129.1471 213.6913
  Z
  M 128.7472 258.6366
  A 2.82 2.82 0.0 0 0 125.9619 255.7823
  L 125.6819 255.7789
  A 2.82 2.82 0.0 0 0 122.8277 258.5642
  L 122.6928 269.6034
  A 2.82 2.82 0.0 0 0 125.4781 272.4577
  L 125.7581 272.4611
  A 2.82 2.82 0.0 0 0 128.6123 269.6758
  L 128.7472 258.6366
  Z"
/>
<path fill="#224d9b" d="
  M 39.50 57.79
  Q 38.89 101.41 39.35 145.09
  A 0.80 0.80 -78.2 0 0 39.81 145.80
  L 63.68 157.33
  A 2.12 2.11 6.3 0 1 64.83 158.76
  L 71.34 187.08
  A 2.85 2.83 58.0 0 1 70.80 189.47
  L 52.77 212.10
  A 1.33 0.90 -65.2 0 1 51.96 212.59
  L 44.99 213.06
  A 0.55 0.48 -1.4 0 0 44.47 213.53
  Q 43.87 231.14 44.63 248.70
  L 44.22 270.44
  A 1.47 1.12 72.4 0 1 43.90 271.33
  Q 41.32 274.30 38.75 270.99
  Q 37.89 269.88 35.02 271.76
  C 31.33 274.16 29.74 271.54 29.74 268.15
  Q 29.77 251.70 29.99 235.25
  Q 30.01 234.12 29.65 233.02
  L 29.75 213.56
  A 0.51 0.50 -89.4 0 0 29.25 213.04
  L 21.99 213.01
  A 2.77 2.74 70.0 0 1 19.87 212.01
  L 9.83 199.97
  L 2.17 189.95
  Q 0.88 188.27 1.38 186.06
  L 3.05 178.56
  L 7.89 158.40
  A 1.36 1.35 83.9 0 1 8.62 157.49
  L 32.90 145.75
  A 0.81 0.78 -13.3 0 0 33.36 145.04
  L 33.25 64.46
  L 33.43 29.53
  A 1.29 1.08 71.1 0 1 33.76 28.67
  C 37.05 25.33 39.27 28.15 39.26 31.62
  Q 39.24 43.66 39.25 55.69
  Q 39.25 55.94 39.00 56.62
  Q 38.76 57.30 39.50 57.79
  Z
  M 59.00 161.65
  L 36.71 150.91
  A 1.06 1.03 44.3 0 0 35.80 150.91
  L 13.54 161.66
  A 1.05 1.03 -7.0 0 0 12.98 162.36
  L 7.49 186.54
  A 1.04 1.02 32.5 0 0 7.69 187.41
  L 23.03 206.78
  A 1.14 0.96 68.6 0 0 23.83 207.21
  L 28.33 207.24
  A 1.59 1.43 -85.7 0 0 29.78 205.85
  Q 30.35 201.50 32.69 201.34
  Q 37.40 201.02 42.26 201.45
  A 1.43 1.23 -15.7 0 1 43.12 201.85
  Q 44.95 203.74 44.51 206.61
  A 0.47 0.42 -84.8 0 0 44.91 207.16
  L 48.64 207.19
  A 1.16 0.88 -65.2 0 0 49.46 206.75
  L 64.97 187.39
  A 1.07 1.05 57.9 0 0 65.16 186.51
  L 59.67 162.49
  A 1.27 1.26 -84.0 0 0 59.00 161.65
  Z
  M 38.51 207.83
  A 0.51 0.51 0.0 0 0 38.00 207.32
  L 36.18 207.32
  A 0.51 0.51 0.0 0 0 35.67 207.83
  L 35.67 269.15
  A 0.51 0.51 0.0 0 0 36.18 269.66
  L 38.00 269.66
  A 0.51 0.51 0.0 0 0 38.51 269.15
  L 38.51 207.83
  Z"
/>
<rect fill="#224d9b" x="-2.94" y="-14.04" transform="translate(127.55,41.39) rotate(0.6)" width="5.88" height="28.08" rx="2.86"/>
<path fill="#224d9b" d="
  M 246.73 97.25
  Q 246.67 97.15 246.42 97.31
  A 0.59 0.49 74.2 0 0 246.20 97.81
  Q 246.39 101.41 246.29 112.56
  Q 246.18 125.19 246.26 195.23
  C 246.26 197.60 246.63 201.22 246.13 204.33
  Q 246.03 204.94 246.55 204.76
  Q 246.30 237.15 246.51 269.57
  C 246.53 272.46 246.10 274.67 242.74 274.52
  Q 240.50 274.43 240.50 272.19
  L 240.50 218.05
  A 0.30 0.24 -89.0 0 0 240.27 217.75
  L 240.04 217.75
  Q 240.50 216.57 240.50 216.25
  Q 240.50 150.75 240.50 85.26
  Q 240.50 84.97 240.22 84.45
  L 240.00 84.04
  Q 240.54 84.03 240.54 83.69
  Q 240.44 56.50 240.52 29.30
  A 1.55 1.53 -13.6 0 1 241.37 27.93
  C 245.55 25.83 246.52 29.18 246.49 32.48
  Q 246.19 64.87 246.73 97.25
  Z"
/>
<path fill="#224d9b" d="
  M 198.07 41.55
  Q 216.67 40.83 219.75 58.78
  L 221.28 134.76
  Q 221.32 136.46 222.31 135.07
  C 223.93 132.79 228.24 131.30 228.63 135.41
  C 228.88 138.15 224.06 141.10 221.97 142.08
  A 0.81 0.78 -13.3 0 0 221.51 142.79
  C 221.64 151.62 223.14 163.77 220.96 171.18
  C 217.57 182.71 207.62 187.41 195.75 187.45
  C 178.62 187.52 157.26 191.39 149.98 170.71
  C 147.27 163.04 148.76 150.31 148.77 141.73
  A 1.71 1.70 -78.0 0 0 147.75 140.15
  Q 144.61 138.77 142.19 135.48
  A 1.47 1.36 30.7 0 1 141.92 134.57
  Q 142.11 131.38 145.22 131.46
  A 1.49 0.37 37.3 0 1 146.08 131.83
  L 148.74 133.52
  Q 149.20 133.81 149.21 133.21
  Q 149.50 97.45 150.34 61.73
  C 150.66 48.46 157.64 41.70 170.91 41.78
  Q 184.43 41.86 198.07 41.55
  Z
  M 213.63 59.51
  C 213.45 52.96 208.56 47.67 201.93 47.55
  Q 196.84 47.46 171.69 47.49
  C 160.24 47.50 156.34 51.91 156.13 63.44
  Q 155.21 113.56 154.50 163.71
  A 0.68 0.67 10.1 0 0 154.96 164.36
  C 166.06 168.16 168.23 169.33 170.85 181.06
  A 0.63 0.62 -6.4 0 0 171.46 181.54
  L 200.44 181.50
  A 1.74 1.74 1.6 0 0 202.17 179.87
  Q 202.95 166.99 215.63 164.20
  A 0.61 0.60 -7.1 0 0 216.10 163.60
  Q 215.01 111.50 213.63 59.51
  Z
  M 208.3546 178.1240
  A 4.79 1.23 130.1 0 0 212.3809 175.2523
  A 4.79 1.23 130.1 0 0 214.5254 170.7960
  A 4.79 1.23 130.1 0 0 210.4991 173.6677
  A 4.79 1.23 130.1 0 0 208.3546 178.1240
  Z
  M 164.50 178.77
  C 163.85 175.00 160.57 171.96 156.98 171.16
  Q 156.46 171.05 156.71 171.53
  Q 159.07 176.10 163.95 179.14
  Q 164.63 179.56 164.50 178.77
  Z"
/>
<path fill="#2bc3f2" d="
  M 201.93 47.55
  C 208.56 47.67 213.45 52.96 213.63 59.51
  Q 215.01 111.50 216.10 163.60
  A 0.61 0.60 -7.1 0 1 215.63 164.20
  Q 202.95 166.99 202.17 179.87
  A 1.74 1.74 1.6 0 1 200.44 181.50
  L 171.46 181.54
  A 0.63 0.62 -6.4 0 1 170.85 181.06
  C 168.23 169.33 166.06 168.16 154.96 164.36
  A 0.68 0.67 10.1 0 1 154.50 163.71
  Q 155.21 113.56 156.13 63.44
  C 156.34 51.91 160.24 47.50 171.69 47.49
  Q 196.84 47.46 201.93 47.55
  Z
  M 208.80 70.43
  Q 207.32 69.53 205.58 69.52
  Q 186.55 69.47 167.00 69.51
  C 161.92 69.52 158.50 70.92 158.70 76.51
  C 158.85 80.50 159.71 86.32 159.73 91.27
  C 159.77 105.39 160.28 119.75 159.20 133.83
  Q 158.71 140.32 158.46 146.49
  Q 158.34 149.23 161.05 149.74
  Q 185.55 154.34 210.04 149.64
  Q 212.11 149.24 212.00 147.13
  C 211.43 136.64 210.38 126.04 210.66 115.19
  C 210.88 106.78 210.18 94.83 211.05 83.59
  C 211.38 79.36 213.30 73.18 208.80 70.43
  Z"
/>
<path fill="#96d7f6" d="
  M 33.25 64.46
  L 33.36 145.04
  A 0.81 0.78 -13.3 0 1 32.90 145.75
  L 8.62 157.49
  A 1.36 1.35 83.9 0 0 7.89 158.40
  L 3.05 178.56
  Q 0.57 167.13 0.00 155.69
  L 0.00 145.94
  Q 2.37 99.17 33.25 64.46
  Z"
/>
<path fill="#224d9b" d="
  M 208.80 70.43
  C 213.30 73.18 211.38 79.36 211.05 83.59
  C 210.18 94.83 210.88 106.78 210.66 115.19
  C 210.38 126.04 211.43 136.64 212.00 147.13
  Q 212.11 149.24 210.04 149.64
  Q 185.55 154.34 161.05 149.74
  Q 158.34 149.23 158.46 146.49
  Q 158.71 140.32 159.20 133.83
  C 160.28 119.75 159.77 105.39 159.73 91.27
  C 159.71 86.32 158.85 80.50 158.70 76.51
  C 158.50 70.92 161.92 69.52 167.00 69.51
  Q 186.55 69.47 205.58 69.52
  Q 207.32 69.53 208.80 70.43
  Z
  M 205.08 83.78
  C 205.62 81.75 205.74 78.29 205.81 76.05
  A 0.48 0.48 -88.9 0 0 205.33 75.55
  L 165.05 75.52
  A 0.48 0.45 -3.2 0 0 164.57 76.02
  L 165.55 83.82
  A 0.61 0.55 -3.2 0 0 166.15 84.30
  L 204.45 84.26
  A 0.65 0.65 7.5 0 0 205.08 83.78
  Z
  M 204.7241 90.7158
  A 0.56 0.56 0.0 0 0 204.1631 90.1568
  L 166.1032 90.2232
  A 0.56 0.56 0.0 0 0 165.5442 90.7842
  L 165.5959 120.4242
  A 0.56 0.56 0.0 0 0 166.1569 120.9832
  L 204.2168 120.9168
  A 0.56 0.56 0.0 0 0 204.7758 120.3558
  L 204.7241 90.7158
  Z
  M 204.03 127.44
  Q 187.23 127.44 171.33 127.51
  C 169.89 127.52 167.87 126.95 166.04 127.40
  A 0.69 0.68 84.9 0 0 165.52 128.03
  L 164.55 143.94
  A 0.56 0.55 6.3 0 0 165.02 144.52
  Q 185.39 147.84 205.74 144.49
  A 0.53 0.53 83.4 0 0 206.18 143.93
  L 205.12 128.48
  A 1.11 1.09 88.0 0 0 204.03 127.44
  Z"
/>
<rect fill="#224d9b" x="-2.91" y="-14.03" transform="translate(127.21,86.32) rotate(0.7)" width="5.82" height="28.06" rx="2.78"/>
<path fill="#ffffff" d="
  M 205.81 76.05
  C 205.74 78.29 205.62 81.75 205.08 83.78
  A 0.65 0.65 7.5 0 1 204.45 84.26
  L 166.15 84.30
  A 0.61 0.55 -3.2 0 1 165.55 83.82
  L 164.57 76.02
  A 0.48 0.45 -3.2 0 1 165.05 75.52
  L 205.33 75.55
  A 0.48 0.48 -88.9 0 1 205.81 76.05
  Z"
/>
<rect fill="#f8de80" x="-19.59" y="-15.38" transform="translate(185.16,105.57) rotate(-0.1)" width="39.18" height="30.76" rx="0.56"/>
<path fill="#96d7f6" d="
  M 246.73 97.25
  C 262.25 130.75 262.92 171.27 246.55 204.76
  Q 246.03 204.94 246.13 204.33
  C 246.63 201.22 246.26 197.60 246.26 195.23
  Q 246.18 125.19 246.29 112.56
  Q 246.39 101.41 246.20 97.81
  A 0.59 0.49 74.2 0 1 246.42 97.31
  Q 246.67 97.15 246.73 97.25
  Z"
/>
<rect fill="#224d9b" x="-2.94" y="-11.79" transform="translate(126.80,128.89) rotate(0.7)" width="5.88" height="23.58" rx="2.84"/>
<path fill="#ffffff" d="
  M 204.03 127.44
  A 1.11 1.09 88.0 0 1 205.12 128.48
  L 206.18 143.93
  A 0.53 0.53 83.4 0 1 205.74 144.49
  Q 185.39 147.84 165.02 144.52
  A 0.56 0.55 6.3 0 1 164.55 143.94
  L 165.52 128.03
  A 0.69 0.68 84.9 0 1 166.04 127.40
  C 167.87 126.95 169.89 127.52 171.33 127.51
  Q 187.23 127.44 204.03 127.44
  Z"
/>
<path fill="#224d9b" d="
  M 119.10 201.28
  C 120.85 202.85 122.31 203.73 120.28 206.29
  Q 118.74 208.23 116.77 206.72
  C 93.61 188.85 92.67 160.09 111.02 138.35
  A 2.42 2.41 -62.8 0 1 113.44 137.57
  C 116.49 138.32 116.15 141.19 114.49 143.25
  C 99.01 162.53 100.75 184.82 119.10 201.28
  Z"
/>
<path fill="#224d9b" d="
  M 122.92 145.11
  C 125.13 146.30 124.91 148.06 123.53 149.90
  C 115.18 161.02 112.44 173.17 119.75 185.27
  C 121.84 188.72 125.20 191.87 128.17 194.89
  A 1.37 1.19 24.6 0 1 128.55 195.73
  Q 128.66 199.06 125.51 199.29
  A 1.45 1.24 57.9 0 1 124.62 199.01
  C 106.52 185.55 105.09 162.57 119.48 145.76
  Q 120.94 144.05 122.92 145.11
  Z"
/>
<path fill="#f8de80" d="
  M 59.00 161.65
  A 1.27 1.26 -84.0 0 1 59.67 162.49
  L 65.16 186.51
  A 1.07 1.05 57.9 0 1 64.97 187.39
  L 49.46 206.75
  A 1.16 0.88 -65.2 0 1 48.64 207.19
  L 44.91 207.16
  A 0.47 0.42 -84.8 0 1 44.51 206.61
  Q 44.95 203.74 43.12 201.85
  A 1.43 1.23 -15.7 0 0 42.26 201.45
  Q 37.40 201.02 32.69 201.34
  Q 30.35 201.50 29.78 205.85
  A 1.59 1.43 -85.7 0 1 28.33 207.24
  L 23.83 207.21
  A 1.14 0.96 68.6 0 1 23.03 206.78
  L 7.69 187.41
  A 1.04 1.02 32.5 0 1 7.49 186.54
  L 12.98 162.36
  A 1.05 1.03 -7.0 0 1 13.54 161.66
  L 35.80 150.91
  A 1.06 1.03 44.3 0 1 36.71 150.91
  L 59.00 161.65
  Z"
/>
<path fill="#224d9b" d="
  M 130.62 151.60
  C 132.68 152.55 133.06 154.09 131.75 156.01
  C 122.48 169.65 124.36 175.75 135.07 186.82
  A 1.00 0.96 28.8 0 1 135.34 187.68
  C 134.38 192.84 130.78 190.84 128.46 188.48
  Q 111.83 171.63 127.34 152.37
  Q 128.68 150.70 130.62 151.60
  Z"
/>
<ellipse fill="#ffffff" cx="0.00" cy="0.00" transform="translate(211.44,174.46) rotate(130.1)" rx="4.79" ry="1.23"/>
<path fill="#ffffff" d="
  M 156.98 171.16
  C 160.57 171.96 163.85 175.00 164.50 178.77
  Q 164.63 179.56 163.95 179.14
  Q 159.07 176.10 156.71 171.53
  Q 156.46 171.05 156.98 171.16
  Z"
/>
<path fill="#96d7f6" d="
  M 9.83 199.97
  L 19.87 212.01
  A 2.77 2.74 70.0 0 0 21.99 213.01
  L 29.25 213.04
  A 0.51 0.50 -89.4 0 1 29.75 213.56
  L 29.65 233.02
  Q 16.90 218.13 9.83 199.97
  Z"
/>
<rect fill="#ffffff" x="35.67" y="207.32" width="2.84" height="62.34" rx="0.51"/>
<rect fill="#224d9b" x="-2.93" y="-14.04" transform="translate(126.10,224.86) rotate(0.6)" width="5.86" height="28.08" rx="2.84"/>
<rect fill="#224d9b" x="-2.96" y="-8.34" transform="translate(125.72,264.12) rotate(0.7)" width="5.92" height="16.68" rx="2.82"/>
</svg>
