<svg width="1192" height="935" viewBox="0 0 1192 935" fill="none" xmlns="http://www.w3.org/2000/svg">
<g clip-path="url(#clip0_0_1)">
<path d="M218.965 931.158H163.393C155.088 931.158 148.33 924.401 148.33 916.094V752.982C148.33 744.675 155.088 737.918 163.393 737.918H218.965C227.27 737.918 234.028 744.675 234.028 752.982V916.094C234.028 924.401 227.27 931.158 218.965 931.158Z" fill="#3F3D56"/>
<path d="M763.399 931.478H707.827C699.521 931.478 692.764 924.72 692.764 916.414V753.301C692.764 744.995 699.521 738.237 707.827 738.237H763.399C771.704 738.237 778.462 744.995 778.462 753.301V916.414C778.462 924.72 771.704 931.478 763.399 931.478Z" fill="#3F3D56"/>
<path d="M232.139 525.857L150.306 642.083C140.431 656.108 136.516 673.474 139.418 690.379L164.289 835.279C169.631 866.401 196.616 889.149 228.193 889.149H709.069C743.34 889.149 771.693 862.479 773.787 828.272L783.385 671.505C784.528 652.843 777.558 634.595 764.265 621.446L649.479 507.901C636.879 495.437 619.727 488.674 602.012 489.185L283.287 498.372C262.859 498.961 243.904 509.146 232.139 525.857H232.139Z" fill="#24649C"/>
<path d="M244.604 546.49L228.957 575.746C218.987 594.388 233.524 616.404 255.642 616.158L647.369 611.807C671.431 611.54 684.982 585.604 670.592 567.362L645.926 536.096C640.238 528.885 631.219 524.708 621.709 524.881L270.294 531.242C259.398 531.439 249.516 537.304 244.604 546.49H244.604Z" fill="white"/>
<path d="M734.955 607.541C732.424 607.541 729.959 606.602 728.066 604.889C725.921 602.948 724.69 600.175 724.69 597.282L724.691 590.851L725.98 561.213C726.22 555.709 730.722 551.399 736.231 551.399H777.01C780.807 551.399 784.277 553.479 786.064 556.83L790.923 565.941C792.459 568.822 792.545 572.17 791.16 575.125C789.774 578.082 787.145 580.157 783.948 580.816L753.204 587.178C750.025 587.835 747.52 590.19 746.665 593.324L744.85 599.981C743.739 604.052 740.171 607.07 735.971 607.49C735.632 607.525 735.293 607.541 734.955 607.541V607.541Z" fill="#24649C"/>
<path d="M184.099 607.49C179.9 607.07 176.331 604.052 175.221 599.981L173.405 593.324C172.551 590.19 170.045 587.835 166.866 587.178L136.122 580.816C132.925 580.157 130.297 578.082 128.911 575.125C127.525 572.17 127.611 568.822 129.147 565.941L134.006 556.83C135.794 553.479 139.263 551.399 143.06 551.399H183.84C189.348 551.399 193.85 555.709 194.09 561.213L195.379 590.851L195.38 597.282C195.38 600.175 194.149 602.948 192.004 604.889C190.112 606.602 187.647 607.541 185.116 607.541C184.778 607.541 184.438 607.525 184.099 607.49L184.099 607.49Z" fill="#24649C"/>
<path d="M240.749 734.557C263.022 734.557 281.078 716.501 281.078 694.229C281.078 671.956 263.022 653.9 240.749 653.9C218.477 653.9 200.421 671.956 200.421 694.229C200.421 716.501 218.477 734.557 240.749 734.557Z" fill="white"/>
<path d="M705.367 735.397C727.639 735.397 745.695 717.341 745.695 695.069C745.695 672.796 727.639 654.74 705.367 654.74C683.094 654.74 665.038 672.796 665.038 695.069C665.038 717.341 683.094 735.397 705.367 735.397Z" fill="white"/>
<path d="M187.068 478.777C190.782 480.856 193.944 483.793 196.289 487.345L222.77 503.091L267.764 524.166C267.764 524.166 278.375 486.445 291.052 484.036C303.73 481.627 324.645 509.582 324.645 509.582C324.645 509.582 288.186 568.616 272.304 562.563C256.422 556.51 220.937 527.114 220.937 527.114L216.301 523.347L186.818 503.734C182.569 503.475 178.444 502.203 174.787 500.023C165.566 494.696 160.84 485.62 164.231 479.752C167.622 473.884 177.845 473.447 187.068 478.777V478.777Z" fill="#A0616A"/>
<path d="M274.768 495.149L297.777 468.062L311.678 470.065C328.729 472.521 338.207 491.12 330.176 506.359L322.167 521.556L274.768 495.149V495.149Z" fill="#E6E6E6"/>
<path d="M199.948 530.612L159.45 474.784C158.849 473.959 158.996 472.804 159.783 472.154L169.498 464.132C169.92 463.784 170.472 463.631 171.012 463.711C171.551 463.791 172.037 464.096 172.341 464.552L212.579 524.941C212.91 525.436 212.994 526.046 212.81 526.614C212.624 527.182 212.196 527.626 211.634 527.833L202.18 531.293C201.485 531.548 200.709 531.376 200.183 530.88C200.098 530.799 200.018 530.71 199.948 530.612V530.612Z" fill="#3F3D56"/>
<path d="M203.167 527.199L161.254 472.871C160.632 472.069 160.675 471.024 161.351 470.493L169.685 463.934C170.047 463.649 170.545 463.553 171.05 463.67C171.556 463.787 172.029 464.105 172.347 464.546L214.386 523.025C214.732 523.505 214.859 524.07 214.734 524.574C214.608 525.08 214.248 525.451 213.745 525.595L205.285 528.001C204.664 528.179 203.933 527.959 203.407 527.463C203.321 527.382 203.24 527.295 203.167 527.199H203.167Z" fill="#E6E6E6"/>
<path d="M186.444 866.902L168.22 906.228L138.486 892.8L161.506 863.066L186.444 866.902Z" fill="#A0616A"/>
<path d="M155.751 893.759L177.811 890.881C177.811 890.881 193.158 927.329 181.648 929.247C170.138 931.166 79.9773 939.798 79.9773 928.288C79.9773 916.778 117.384 902.391 117.384 902.391L143.282 884.167L155.751 893.759V893.759Z" fill="#2F2E41"/>
<path d="M329.358 613.685C329.358 613.685 356.215 653.969 298.665 678.908L237.279 767.15L186.444 877.453L155.751 865.943L209.464 699.05L240.157 624.236L254.544 601.216L329.358 613.685V613.685Z" fill="#2F2E41"/>
<path d="M115.96 762.132L103.744 803.718L72.3525 794.828L90.7284 762.021L115.96 762.132Z" fill="#A0616A"/>
<path d="M89.5696 793.227L110.963 787.123C110.963 787.123 131.525 820.905 120.424 824.502C109.324 828.099 21.4269 849.953 19.7269 838.569C18.027 827.186 52.899 807.431 52.899 807.431L75.8207 785.582L89.5696 793.227H89.5696Z" fill="#2F2E41"/>
<path d="M270.851 605.63L123.438 637.619C112.064 640.088 103.245 649.08 100.999 660.501L80.366 765.419L125.523 780.076L145.803 686.403L276.678 681.332L270.851 605.63H270.851Z" fill="#2F2E41"/>
<path d="M307.91 428.37L289.682 464.077L338.171 471.621L337.643 423.613L307.91 428.37Z" fill="#A0616A"/>
<path d="M318.031 443.019C336.672 443.019 351.784 427.908 351.784 409.266C351.784 390.625 336.672 375.513 318.031 375.513C299.39 375.513 284.278 390.625 284.278 409.266C284.278 427.908 299.39 443.019 318.031 443.019Z" fill="#A0616A"/>
<path d="M339.909 625.195L345.475 535.026C350.291 513.443 348.688 490.923 340.862 470.24L338.95 448.71L294.829 451.587L276.125 481.801L258.381 553.258L254.544 601.216L339.909 625.195V625.195Z" fill="#E6E6E6"/>
<path d="M210.795 555.426C215.009 554.833 219.304 555.257 223.321 556.664L253.931 553.169L302.502 542.707C302.502 542.707 288.114 506.259 296.747 496.668C305.379 487.076 338.95 496.668 338.95 496.668C338.95 496.668 345.664 565.727 329.358 570.523C313.053 575.319 267.013 573.4 267.013 573.4L261.043 573.208L225.703 575.443C222.164 577.809 218.11 579.293 213.88 579.772C203.315 581.113 194.06 576.75 193.207 570.027C192.354 563.303 200.227 556.767 210.795 555.426V555.426Z" fill="#A0616A"/>
<path d="M290.512 515.371L292.431 479.882L304.708 473.062C319.766 464.696 338.569 473.762 341.401 490.754L344.225 507.698L290.512 515.371V515.371Z" fill="#E6E6E6"/>
<path d="M344.347 430.011C344.347 430.011 347.494 414.274 338.052 413.225C328.61 412.176 319.167 393.291 319.167 393.291C319.167 393.291 286.586 387.608 285.537 401.247C284.487 414.886 284.889 411.855 284.889 411.855C284.889 411.855 277.143 408.591 280.291 394.952C281.19 391.055 283.374 387.501 286.035 384.412C294.588 374.483 307.727 369.792 320.745 371.293C326.259 371.929 342.673 377.162 345.844 380.729C354.237 390.171 357.986 419.52 344.347 430.011V430.011Z" fill="#3F3D56"/>
<path d="M233.066 830.151C227.145 830.151 221.922 827.054 219.08 821.851C216.222 816.62 216.455 810.515 219.703 805.517L220.186 805.83L219.703 805.517L230.23 789.321C233.184 784.778 238.181 782.066 243.6 782.066H701.477C706.145 782.066 710.562 784.101 713.596 787.649L725.149 801.161C729.229 805.934 730.141 812.445 727.53 818.155C724.919 823.865 719.397 827.433 713.119 827.468L233.162 830.151H233.066V830.151Z" fill="#3F3D56"/>
<path d="M780.886 634.629C789.31 640.139 798.98 640.258 802.485 634.897C805.99 629.536 802.003 620.725 793.576 615.216C790.24 612.968 786.414 611.553 782.419 611.087L746.435 588.196L736.052 605.311L772.629 626.061C774.658 629.536 777.489 632.474 780.886 634.629L780.886 634.629Z" fill="#FFB6B6"/>
<path d="M678.541 578.218L766.82 623.846L774.5 602.726L714.621 555.821L710.634 487.391C710.148 479.034 705.957 471.46 699.136 466.608C692.317 461.759 683.786 460.285 675.732 462.565C661.395 466.627 652.847 481.648 656.679 496.048L678.541 578.218V578.218Z" fill="#E6E6E6"/>
<path d="M699.865 455.768L703.992 429.971L676.132 418.621L672.004 457.832L699.865 455.768Z" fill="#FFB6B6"/>
<path d="M612.129 602.556C612.129 602.556 604.131 652.545 636.124 658.543C668.117 664.542 741.101 668.541 741.101 668.541L835.08 782.516L854.076 761.521L773.094 636.548L708.108 595.557L612.129 602.556V602.556Z" fill="#2F2E41"/>
<path d="M619.765 594.463C619.765 594.463 601.112 641.527 631.042 654.323C660.971 667.12 731.349 686.857 731.349 686.857L798.363 818.506L821.462 802.132L769.521 662.567L714.976 608.454L619.765 594.463V594.463Z" fill="#2F2E41"/>
<path d="M705.109 451.589L669.117 445.591L644.723 459.169C630.524 479.82 629.351 545.322 626 570.158L606.131 616.553L669.117 607.555L720.105 602.556L703.109 491.58L705.109 451.589L705.109 451.589Z" fill="#E6E6E6"/>
<path d="M692.824 438.264C708.515 438.264 721.235 425.544 721.235 409.853C721.235 394.162 708.515 381.442 692.824 381.442C677.133 381.442 664.413 394.162 664.413 409.853C664.413 425.544 677.133 438.264 692.824 438.264Z" fill="#FFB6B6"/>
<path d="M690.557 371.656C691.379 372.136 692.48 371.41 692.744 370.496C693.007 369.581 692.7 368.61 692.396 367.708C691.885 366.194 691.374 364.681 690.863 363.167C689.776 359.947 688.622 356.615 686.267 354.164C682.713 350.465 677.065 349.524 671.981 350.205C665.452 351.081 659.01 354.616 655.974 360.463C652.938 366.309 654.231 374.467 659.716 378.114C651.898 387.075 649.173 397.062 649.603 408.946C650.033 420.831 662.984 431.768 671.43 440.14C673.316 438.997 675.031 433.639 673.994 431.692C672.957 429.746 674.443 427.491 673.158 425.698C671.874 423.905 670.799 426.76 672.098 424.977C672.917 423.852 669.719 421.264 670.937 420.591C676.828 417.334 678.788 409.991 682.488 404.367C686.951 397.584 694.59 392.991 702.674 392.228C707.127 391.809 711.831 392.569 715.481 395.154C719.131 397.74 721.494 402.359 720.647 406.751C722.839 404.526 723.931 401.264 723.519 398.167C723.107 395.07 721.202 392.207 718.505 390.631C720.145 385.207 718.74 378.968 714.933 374.771C711.127 370.574 695.684 371.289 690.127 372.394" fill="#2F2E41"/>
<path d="M689.694 392.393C682.333 393.188 677.018 399.564 672.53 405.452C669.944 408.846 667.234 412.594 667.299 416.861C667.365 421.174 670.249 424.874 671.628 428.962C673.881 435.645 671.685 443.595 666.321 448.174C671.621 449.179 677.35 445.206 678.265 439.89C679.33 433.701 674.639 427.729 675.194 421.474C675.684 415.963 680.026 411.722 683.718 407.602C687.41 403.482 690.877 398.015 689.179 392.75" fill="#2F2E41"/>
<path d="M758.306 639.973C766.729 645.482 776.399 645.602 779.904 640.241C783.41 634.879 779.422 626.069 770.995 620.559C767.659 618.312 763.834 616.897 759.838 616.431L723.854 593.54L713.472 610.655L750.048 631.405C752.077 634.879 754.909 637.818 758.306 639.973V639.973Z" fill="#FFB6B6"/>
<path d="M655.96 583.562L744.239 629.19L751.919 608.069L692.04 561.165L688.054 492.735C687.567 484.378 683.376 476.804 676.556 471.952C669.736 467.103 661.205 465.628 653.151 467.909C638.814 471.971 630.267 486.992 634.098 501.392L655.96 583.562V583.562Z" fill="#E6E6E6"/>
<path d="M801.544 800.844L803.587 802.012C803.587 802.012 817.584 794.013 824.582 802.012C831.581 810.01 836.58 830.005 836.58 830.005C836.58 830.005 865.573 854 848.577 854C835.783 854 805.426 839.837 791.198 832.834C786.656 830.598 784.541 825.287 786.308 820.542C787.78 816.588 789.685 812.438 791.59 811.01C793.589 809.51 794.839 806.261 795.589 803.386C796.268 800.782 799.207 799.509 801.544 800.844V800.844Z" fill="#2F2E41"/>
<path d="M840.535 762.852L842.578 764.02C842.578 764.02 856.575 756.022 863.573 764.02C870.572 772.018 875.571 792.014 875.571 792.014C875.571 792.014 904.564 816.008 887.568 816.008C874.774 816.008 844.418 801.845 830.189 794.842C825.647 792.606 823.533 787.295 825.299 782.551C826.772 778.596 828.676 774.446 830.581 773.018C832.58 771.518 833.83 768.269 834.58 765.395C835.259 762.79 838.198 761.517 840.535 762.852V762.852Z" fill="#2F2E41"/>
</g>
<path d="M835.796 246.819C835.145 246.82 834.522 247.079 834.062 247.539C833.602 247.999 833.343 248.624 833.343 249.275V347.376C833.343 348.027 833.602 348.651 834.062 349.111C834.522 349.572 835.145 349.831 835.796 349.832H852.434C853.084 349.831 853.708 349.572 854.168 349.111C854.628 348.651 854.886 348.027 854.887 347.376V249.275C854.886 248.624 854.628 247.999 854.168 247.539C853.708 247.079 853.084 246.82 852.434 246.819H835.796Z" fill="#3F3D56"/>
<path d="M974.153 246.819C973.503 246.82 972.879 247.079 972.419 247.539C971.959 247.999 971.7 248.624 971.699 249.275V347.376C971.7 348.027 971.959 348.651 972.419 349.111C972.879 349.572 973.503 349.831 974.153 349.832H990.791C991.441 349.831 992.065 349.572 992.525 349.111C992.985 348.651 993.244 348.027 993.244 347.376V249.275C993.244 248.624 992.985 247.999 992.525 247.539C992.065 247.079 991.441 246.82 990.791 246.819H974.153Z" fill="#3F3D56"/>
<path d="M1051.88 168.877L924.315 159.019L1026.09 176.388L1050.48 172.163L1051.88 168.877Z" fill="#3F3D56"/>
<path d="M1027.03 174.843L1051.42 170.618L1051.66 170.058L1052.82 170.149L1051.42 173.435L1027.03 177.66L925.253 159.019L955.414 162.621L1027.03 174.843Z" fill="#24649C"/>
<path d="M762.977 168.877L635.407 159.019L737.181 176.388L761.57 172.163L762.977 168.877Z" fill="#3F3D56"/>
<path d="M735.775 174.843L760.163 170.618L760.403 170.058L761.57 170.149L760.163 173.435L735.775 177.66L634 159.019L664.161 162.621L735.775 174.843Z" fill="#24649C"/>
<path d="M1073.46 220.046L1062.67 220.516L963.847 262.249L958.191 266.99L940.261 282.012H883.98L867.03 266.99L860.586 261.277L765.791 220.985L757.349 220.046L785.489 206.432H785.639C792.018 200.372 847.257 195.635 914.466 195.635C981.674 195.635 1036.91 200.372 1043.29 206.432H1043.91L1073.46 220.046Z" fill="#3F3D56"/>
<path d="M784.716 207.128C784.916 206.566 785.019 205.973 785.02 205.375V183.079C785.02 181.678 784.464 180.334 783.474 179.344C782.485 178.353 781.142 177.797 779.743 177.797H777.6C779.359 176.019 780.554 173.761 781.033 171.305C781.512 168.85 781.255 166.307 780.293 163.998C779.331 161.689 777.708 159.716 775.628 158.329C773.548 156.941 771.104 156.201 768.605 156.201C766.105 156.201 763.662 156.941 761.582 158.329C759.502 159.716 757.879 161.689 756.917 163.998C755.955 166.307 755.697 168.85 756.177 171.305C756.656 173.761 757.85 176.019 759.61 177.797H757.467C756.774 177.797 756.088 177.933 755.447 178.199C754.807 178.464 754.225 178.853 753.735 179.344C753.245 179.834 752.857 180.417 752.591 181.057C752.326 181.698 752.19 182.385 752.19 183.079V205.375C752.189 206.288 752.427 207.186 752.879 207.979C751.286 208.258 749.693 208.562 748.1 208.912C747.13 209.129 746.263 209.671 745.642 210.449C745.021 211.226 744.684 212.192 744.686 213.187V218.484C744.686 219.646 745.146 220.759 745.967 221.58C746.787 222.402 747.9 222.863 749.06 222.863H798.621V209.719C794.045 208.565 789.401 207.7 784.716 207.128V207.128Z" fill="#3F3D56"/>
<path d="M1078.02 208.912C1076.42 208.562 1074.83 208.258 1073.24 207.979C1073.69 207.185 1073.93 206.288 1073.93 205.375V183.079C1073.93 182.385 1073.79 181.698 1073.53 181.057C1073.26 180.416 1072.87 179.834 1072.38 179.344C1071.89 178.853 1071.31 178.464 1070.67 178.199C1070.03 177.933 1069.34 177.797 1068.65 177.797H1066.51C1068.27 176.019 1069.46 173.761 1069.94 171.305C1070.42 168.85 1070.16 166.307 1069.2 163.998C1068.24 161.689 1066.62 159.716 1064.54 158.329C1062.46 156.941 1060.01 156.201 1057.51 156.201C1055.01 156.201 1052.57 156.941 1050.49 158.329C1048.41 159.716 1046.79 161.689 1045.82 163.998C1044.86 166.307 1044.61 168.85 1045.08 171.305C1045.56 173.761 1046.76 176.019 1048.52 177.797H1046.37C1045.68 177.797 1045 177.933 1044.36 178.199C1043.72 178.464 1043.13 178.853 1042.64 179.344C1042.15 179.834 1041.76 180.416 1041.5 181.057C1041.23 181.698 1041.1 182.385 1041.1 183.079V205.375C1041.1 205.973 1041.2 206.565 1041.4 207.128C1036.72 207.7 1032.07 208.565 1027.5 209.718V222.863H1077.06C1078.22 222.863 1079.33 222.401 1080.15 221.58C1080.97 220.759 1081.43 219.646 1081.43 218.484V213.187C1081.43 212.192 1081.1 211.226 1080.48 210.449C1079.85 209.671 1078.99 209.129 1078.02 208.912V208.912Z" fill="#3F3D56"/>
<path d="M1063.14 168.877L1190.71 159.019L1088.94 176.388L1064.55 172.163L1063.14 168.877Z" fill="#3F3D56"/>
<path d="M922.016 277.787H902.225C901.492 277.787 900.767 277.932 900.089 278.212C899.412 278.493 898.797 278.905 898.278 279.424C897.76 279.942 897.349 280.558 897.068 281.236C896.788 281.914 896.644 282.64 896.644 283.374V287.692C896.644 288.826 896.99 289.933 897.635 290.865C898.279 291.798 899.192 292.512 900.253 292.913C899.434 293.896 898.987 295.135 898.989 296.415V297.653C898.988 298.536 899.202 299.406 899.61 300.189C900.018 300.971 900.61 301.643 901.334 302.148V318.628H922.908V302.148C923.632 301.643 924.223 300.971 924.632 300.189C925.04 299.406 925.253 298.536 925.253 297.653V296.415C925.255 295.135 924.807 293.896 923.989 292.913C925.049 292.512 925.962 291.798 926.607 290.865C927.252 289.933 927.597 288.826 927.598 287.692V283.374C927.598 282.64 927.454 281.914 927.173 281.236C926.893 280.558 926.481 279.942 925.963 279.424C925.445 278.905 924.829 278.493 924.152 278.212C923.475 277.932 922.749 277.787 922.016 277.787V277.787Z" fill="#3F3D56"/>
<path d="M958.191 266.99L940.261 282.012H883.98L867.031 266.99H883.887L884.623 263.314C884.839 262.233 885.422 261.26 886.274 260.561C887.125 259.862 888.193 259.479 889.294 259.479H936.354C937.456 259.479 938.523 259.862 939.375 260.561C940.227 261.26 940.81 262.233 941.026 263.314L941.762 266.99H958.191Z" fill="#24649C"/>
<path d="M1081.67 214.511H744.92V216.662H1081.67V214.511Z" fill="#E6E6E6"/>
<path d="M1089.87 174.843L1065.49 170.618L1065.25 170.058L1064.08 170.149L1065.49 173.435L1089.87 177.66L1191.65 159.019L1161.49 162.621L1089.87 174.843Z" fill="#24649C"/>
<path d="M774.233 168.877L901.803 159.019L800.028 176.388L775.64 172.163L774.233 168.877Z" fill="#3F3D56"/>
<path d="M801.436 174.843L777.047 170.618L776.808 170.058L775.64 170.149L777.047 173.435L801.436 177.66L903.21 159.019L873.049 162.621L801.436 174.843Z" fill="#24649C"/>
<path d="M931.585 263.469H894.064V270.98H931.585V263.469Z" fill="#E6E6E6"/>
<path d="M792.171 0H678.437C674.402 0.00455815 670.533 1.6111 667.679 4.46719C664.826 7.32327 663.221 11.1956 663.216 15.2348V75.6733C663.221 79.7124 664.826 83.5848 667.679 86.4409C670.533 89.297 674.402 90.9035 678.437 90.9081H792.171C796.207 90.9035 800.075 89.2969 802.929 86.4408C805.782 83.5848 807.387 79.7124 807.392 75.6733V15.2348C807.387 11.1956 805.782 7.32329 802.929 4.4672C800.075 1.61112 796.207 0.00456824 792.171 0V0Z" fill="#E6E6E6"/>
<path d="M678.437 12.3966C677.685 12.3974 676.964 12.6967 676.433 13.2287C675.901 13.7608 675.602 14.4822 675.601 15.2347V75.6735C675.602 76.4259 675.901 77.1474 676.433 77.6794C676.964 78.2115 677.685 78.5108 678.437 78.5116H792.171C792.923 78.5108 793.644 78.2115 794.175 77.6794C794.707 77.1474 795.006 76.4259 795.007 75.6735V15.2347C795.006 14.4822 794.707 13.7608 794.175 13.2287C793.644 12.6967 792.923 12.3974 792.171 12.3966H678.437Z" fill="white"/>
<path d="M733.003 72.1402C732.964 72.1402 732.925 72.1391 732.886 72.137C732.421 72.1106 731.979 71.9268 731.632 71.6156C731.286 71.3045 731.055 70.8846 730.979 70.425L724.396 30.8937L718.584 54.1631C718.473 54.6072 718.217 55.0015 717.857 55.2832C717.496 55.565 717.052 55.718 716.595 55.718H708.391C707.847 55.718 707.326 55.5017 706.941 55.1168C706.556 54.7318 706.34 54.2097 706.34 53.6652C706.34 53.1208 706.556 52.5987 706.941 52.2137C707.326 51.8287 707.847 51.6125 708.391 51.6125H714.994L722.809 20.323C722.923 19.8652 723.191 19.4608 723.569 19.1779C723.946 18.8949 724.409 18.7508 724.88 18.7696C725.351 18.7884 725.801 18.9691 726.155 19.2813C726.508 19.5934 726.744 20.0179 726.821 20.4834L733.529 60.7679L739.233 40.7846C739.354 40.363 739.606 39.9911 739.953 39.7233C740.299 39.4555 740.723 39.3058 741.161 39.2963C741.599 39.2868 742.028 39.4179 742.386 39.6704C742.745 39.9229 743.012 40.2835 743.151 40.6995L746.785 51.6125H753.511C754.055 51.6125 754.576 51.8287 754.961 52.2137C755.345 52.5987 755.562 53.1208 755.562 53.6652C755.562 54.2097 755.345 54.7318 754.961 55.1168C754.576 55.5017 754.055 55.718 753.511 55.718H745.307C744.877 55.718 744.457 55.5824 744.108 55.3305C743.759 55.0786 743.498 54.7231 743.362 54.3144L741.356 48.2927L734.974 70.6514C734.851 71.0801 734.593 71.4573 734.237 71.726C733.882 71.9946 733.448 72.14 733.003 72.1402Z" fill="#24649C"/>
<path d="M758.234 59.7367C761.566 59.7367 764.268 57.0327 764.268 53.6973C764.268 50.3618 761.566 47.6578 758.234 47.6578C754.902 47.6578 752.2 50.3618 752.2 53.6973C752.2 57.0327 754.902 59.7367 758.234 59.7367Z" fill="#3F3D56"/>
<path d="M968.739 0H855.005C850.969 0.00456824 847.1 1.61112 844.247 4.4672C841.394 7.32329 839.788 11.1956 839.784 15.2348V75.6733C839.789 79.7124 841.394 83.5848 844.247 86.4408C847.1 89.2969 850.969 90.9035 855.005 90.9081H968.739C972.774 90.9035 976.643 89.297 979.497 86.4409C982.35 83.5848 983.955 79.7124 983.96 75.6733V15.2348C983.955 11.1956 982.35 7.32328 979.497 4.4672C976.643 1.61111 972.774 0.00456489 968.739 0V0Z" fill="#E6E6E6"/>
<path d="M855.004 12.3966C854.253 12.3974 853.532 12.6967 853 13.2287C852.469 13.7608 852.17 14.4822 852.169 15.2347V75.6735C852.17 76.4259 852.469 77.1474 853 77.6794C853.532 78.2115 854.253 78.5108 855.004 78.5116H968.739C969.491 78.5108 970.211 78.2115 970.743 77.6794C971.275 77.1474 971.574 76.4259 971.574 75.6735V15.2347C971.574 14.4822 971.275 13.7608 970.743 13.2287C970.211 12.6967 969.491 12.3974 968.739 12.3966H855.004Z" fill="white"/>
<path d="M911.872 48.7075C920.157 48.7075 926.874 41.9845 926.874 33.6913C926.874 25.3981 920.157 18.6752 911.872 18.6752C903.586 18.6752 896.869 25.3981 896.869 33.6913C896.869 41.9845 903.586 48.7075 911.872 48.7075Z" fill="#24649C"/>
<path d="M911.872 51.2102H911.872C917.177 51.2102 922.265 53.3196 926.016 57.0744C929.767 60.8291 931.875 65.9217 931.875 71.2317V72.2328H891.869V71.2317C891.869 65.9217 893.976 60.8291 897.727 57.0744C901.479 53.3196 906.567 51.2102 911.872 51.2102V51.2102Z" fill="#24649C"/>
<path d="M881.367 56.2156C887.167 56.2156 891.868 51.5095 891.868 45.7043C891.868 39.8991 887.167 35.193 881.367 35.193C875.567 35.193 870.865 39.8991 870.865 45.7043C870.865 51.5095 875.567 56.2156 881.367 56.2156Z" fill="#3F3D56"/>
<path d="M891.652 61.0451C889.634 59.2537 887.141 58.0841 884.474 57.6771C881.808 57.2701 879.08 57.6429 876.62 58.7508C874.16 59.8586 872.072 61.6543 870.608 63.9218C869.143 66.1893 868.364 68.832 868.365 71.5321V72.2328H888.868V71.2317C888.864 67.6474 889.825 64.1282 891.652 61.0451V61.0451Z" fill="#3F3D56"/>
<path d="M942.376 56.2156C948.176 56.2156 952.878 51.5095 952.878 45.7043C952.878 39.8991 948.176 35.193 942.376 35.193C936.576 35.193 931.875 39.8991 931.875 45.7043C931.875 51.5095 936.576 56.2156 942.376 56.2156Z" fill="#3F3D56"/>
<path d="M932.092 61.0451C934.11 59.2537 936.602 58.0841 939.269 57.6771C941.936 57.2701 944.663 57.6429 947.123 58.7508C949.583 59.8586 951.671 61.6543 953.136 63.9218C954.6 66.1893 955.379 68.832 955.378 71.5321V72.2328H934.875V71.2317C934.88 67.6474 933.918 64.1282 932.092 61.0451V61.0451Z" fill="#3F3D56"/>
<path d="M1145.31 0H1031.57C1027.54 0.00455647 1023.67 1.6111 1020.81 4.46719C1017.96 7.32327 1016.36 11.1956 1016.35 15.2348V75.6733C1016.36 79.7124 1017.96 83.5848 1020.81 86.4409C1023.67 89.297 1027.54 90.9035 1031.57 90.9081H1145.31C1149.34 90.9035 1153.21 89.297 1156.06 86.4409C1158.92 83.5848 1160.52 79.7124 1160.53 75.6733V15.2348C1160.52 11.1956 1158.92 7.32328 1156.06 4.4672C1153.21 1.61111 1149.34 0.00456489 1145.31 0V0Z" fill="#E6E6E6"/>
<path d="M1031.57 12.3966C1030.82 12.3974 1030.1 12.6967 1029.57 13.2287C1029.04 13.7608 1028.74 14.4822 1028.74 15.2347V75.6735C1028.74 76.4259 1029.04 77.1474 1029.57 77.6794C1030.1 78.2115 1030.82 78.5108 1031.57 78.5116H1145.31C1146.06 78.5108 1146.78 78.2115 1147.31 77.6794C1147.84 77.1474 1148.14 76.4259 1148.14 75.6735V15.2347C1148.14 14.4822 1147.84 13.7608 1147.31 13.2287C1146.78 12.6967 1146.06 12.3974 1145.31 12.3966H1031.57Z" fill="white"/>
<path d="M1086.54 73.4026C1086.29 73.4026 1086.05 73.3544 1085.82 73.2608C1085.6 73.1671 1085.39 73.0299 1085.22 72.8569C1085.05 72.6839 1084.91 72.4785 1084.82 72.2524C1084.72 72.0263 1084.67 71.784 1084.67 71.5394V56.6335C1084.67 56.1399 1084.87 55.6669 1085.22 55.3182C1085.57 54.9695 1086.04 54.7737 1086.54 54.7737C1087.03 54.7737 1087.5 54.9695 1087.85 55.3182C1088.2 55.6669 1088.4 56.1399 1088.4 56.6335V71.5393C1088.4 71.784 1088.35 72.0263 1088.25 72.2524C1088.16 72.4785 1088.02 72.6839 1087.85 72.8569C1087.68 73.0299 1087.47 73.1671 1087.25 73.2608C1087.02 73.3544 1086.78 73.4026 1086.54 73.4026V73.4026Z" fill="#24649C"/>
<path d="M1093.05 65.9496H1080.02C1079.53 65.9496 1079.05 65.7533 1078.7 65.4039C1078.35 65.0545 1078.16 64.5805 1078.16 64.0864C1078.16 63.5922 1078.35 63.1183 1078.7 62.7689C1079.05 62.4194 1079.53 62.2231 1080.02 62.2231H1093.05C1093.54 62.2231 1094.02 62.4194 1094.37 62.7689C1094.72 63.1183 1094.91 63.5922 1094.91 64.0864C1094.91 64.5805 1094.72 65.0545 1094.37 65.4039C1094.02 65.7533 1093.54 65.9496 1093.05 65.9496Z" fill="#24649C"/>
<path d="M1111.67 30.5481C1111.42 30.5481 1111.18 30.4999 1110.95 30.4063C1110.73 30.3127 1110.52 30.1754 1110.35 30.0024C1110.18 29.8294 1110.04 29.624 1109.95 29.3979C1109.85 29.1719 1109.8 28.9296 1109.8 28.6849V21.232H1102.36C1102.11 21.232 1101.87 21.1838 1101.65 21.0901C1101.42 20.9965 1101.21 20.8592 1101.04 20.6862C1100.87 20.5132 1100.73 20.3078 1100.64 20.0818C1100.54 19.8557 1100.5 19.6134 1100.5 19.3687C1100.5 19.124 1100.54 18.8818 1100.64 18.6557C1100.73 18.4296 1100.87 18.2242 1101.04 18.0512C1101.21 17.8782 1101.42 17.741 1101.65 17.6473C1101.87 17.5537 1102.11 17.5055 1102.36 17.5055H1111.67C1111.91 17.5055 1112.15 17.5537 1112.38 17.6473C1112.6 17.741 1112.81 17.8782 1112.98 18.0512C1113.15 18.2242 1113.29 18.4296 1113.39 18.6557C1113.48 18.8818 1113.53 19.124 1113.53 19.3687V28.6849C1113.53 28.9296 1113.48 29.1719 1113.39 29.3979C1113.29 29.624 1113.15 29.8294 1112.98 30.0024C1112.81 30.1754 1112.6 30.3127 1112.38 30.4063C1112.15 30.4999 1111.91 30.5481 1111.67 30.5481V30.5481Z" fill="#24649C"/>
<path d="M1100.41 32.4952C1100.04 32.4952 1099.68 32.3859 1099.38 32.1812C1099.07 31.9765 1098.83 31.6855 1098.69 31.345C1098.55 31.0045 1098.51 30.6299 1098.59 30.2685C1098.66 29.9071 1098.84 29.5751 1099.1 29.3145L1110.35 18.0512C1110.7 17.7025 1111.17 17.5069 1111.67 17.5072C1112.16 17.5075 1112.63 17.7038 1112.98 18.053C1113.33 18.4021 1113.52 18.8755 1113.53 19.3693C1113.53 19.863 1113.33 20.3367 1112.98 20.6863L1101.73 31.9495C1101.56 32.1228 1101.35 32.2602 1101.13 32.3538C1100.9 32.4475 1100.66 32.4955 1100.41 32.4952V32.4952Z" fill="#24649C"/>
<path d="M1086.54 56.6334C1083.04 56.6334 1079.62 55.5953 1076.71 53.6503C1073.8 51.7053 1071.54 48.9408 1070.2 45.7065C1068.86 42.4721 1068.51 38.913 1069.19 35.4794C1069.87 32.0458 1071.56 28.8919 1074.03 26.4164C1076.5 23.9409 1079.65 22.255 1083.08 21.5721C1086.52 20.8891 1090.07 21.2396 1093.3 22.5793C1096.53 23.9191 1099.3 26.1878 1101.24 29.0987C1103.18 32.0095 1104.22 35.4318 1104.22 38.9327C1104.21 43.6256 1102.35 48.1247 1099.03 51.4431C1095.72 54.7615 1091.22 56.6281 1086.54 56.6334V56.6334ZM1086.54 24.9584C1083.77 24.9584 1081.07 25.778 1078.78 27.3135C1076.48 28.849 1074.69 31.0315 1073.64 33.585C1072.58 36.1384 1072.3 38.9482 1072.84 41.6589C1073.38 44.3697 1074.71 46.8596 1076.66 48.814C1078.62 50.7683 1081.1 52.0992 1083.81 52.6384C1086.52 53.1776 1089.33 52.9009 1091.88 51.8432C1094.43 50.7855 1096.61 48.9944 1098.14 46.6964C1099.68 44.3983 1100.5 41.6965 1100.5 38.9327C1100.49 35.2278 1099.02 31.6758 1096.4 29.056C1093.79 26.4363 1090.24 24.9626 1086.54 24.9584V24.9584Z" fill="#3F3D56"/>
<defs>
<clipPath id="clip0_0_1">
<rect width="892.91" height="584.158" fill="white" transform="translate(0 350)"/>
</clipPath>
</defs>
</svg>
